<svg width="34" height="27" viewBox="0 0 34 27" fill="none" xmlns="http://www.w3.org/2000/svg">
<path d="M22.8781 23.3866C22.6765 23.2709 22.4624 23.1784 22.2482 23.0858C22.6261 22.5304 23.1426 22.0675 23.7473 21.732C25.2213 20.8989 27.174 20.8989 28.6605 21.732C29.3912 22.1369 29.9959 22.7387 30.3864 23.4445C30.4746 23.6065 30.651 23.699 30.8399 23.699C30.9155 23.699 30.9911 23.6875 31.0667 23.6527C31.3187 23.537 31.4194 23.2593 31.2809 23.0279C30.8021 22.1716 30.0715 21.4427 29.177 20.9452C28.8495 20.76 28.4967 20.6212 28.1314 20.5055C28.9503 19.9501 29.4794 19.0475 29.4794 18.0409C29.4794 16.3515 28.0054 14.9747 26.1913 14.9747C24.3772 14.9747 22.9033 16.3515 22.9033 18.0409C22.9033 19.0591 23.4324 19.9501 24.2513 20.5055C23.8859 20.6212 23.5332 20.76 23.2056 20.9452C23.1804 20.9683 23.1426 20.9799 23.1175 21.003C23.1426 20.841 23.1678 20.6674 23.1678 20.4939C23.1678 18.8045 21.6939 17.4277 19.8798 17.4277C18.0657 17.4277 16.5918 18.8045 16.5918 20.4939C16.5918 20.6674 16.617 20.8295 16.6422 20.9915C16.617 20.9799 16.5918 20.9567 16.5792 20.9452C16.2516 20.76 15.8989 20.6212 15.5335 20.5055C16.3524 19.9501 16.8815 19.0475 16.8815 18.0409C16.8815 16.3515 15.4076 14.9747 13.5935 14.9747C11.7794 14.9747 10.3054 16.3515 10.3054 18.0409C10.3054 19.0591 10.8471 19.9501 11.6534 20.5055C11.2881 20.6212 10.9353 20.76 10.6078 20.9452C9.71333 21.4427 8.98266 22.1716 8.50394 23.0279C8.37796 23.2593 8.47875 23.537 8.7307 23.6527C8.98266 23.7685 9.28501 23.6759 9.41099 23.4445C9.80152 22.7387 10.4062 22.1485 11.1369 21.732C12.6108 20.8989 14.5635 20.8989 16.0375 21.732C16.6422 22.0675 17.1461 22.5304 17.524 23.0858C17.2972 23.1784 17.0831 23.2709 16.8815 23.3866C15.9871 23.8841 15.2564 24.6131 14.7777 25.4694C14.6517 25.7008 14.7525 25.9785 15.0044 26.0942C15.08 26.1289 15.1556 26.1404 15.2312 26.1404C15.4202 26.1404 15.5965 26.0479 15.6847 25.8859C16.0752 25.1801 16.6799 24.59 17.4106 24.1734C18.8846 23.3404 20.8372 23.3404 22.3238 24.1734C23.0545 24.5784 23.6592 25.1801 24.0497 25.8859C24.1757 26.1173 24.478 26.2099 24.73 26.0826C24.9819 25.9669 25.0827 25.6892 24.9441 25.4578C24.4654 24.59 23.7347 23.8726 22.8403 23.3751L22.8781 23.3866ZM23.9237 18.0294C23.9237 16.8492 24.9441 15.9003 26.1913 15.9003C27.4385 15.9003 28.4589 16.8607 28.4589 18.0294C28.4589 19.198 27.4385 20.1699 26.1913 20.1699C24.9441 20.1699 23.9237 19.2096 23.9237 18.0294ZM13.6187 20.1699C12.3715 20.1699 11.3511 19.2096 11.3511 18.0294C11.3511 16.8492 12.3715 15.9003 13.6187 15.9003C14.8659 15.9003 15.8863 16.8607 15.8863 18.0294C15.8863 19.198 14.8659 20.1699 13.6187 20.1699ZM19.905 22.6229C18.6578 22.6229 17.6374 21.6626 17.6374 20.4824C17.6374 19.3021 18.6578 18.3533 19.905 18.3533C21.1522 18.3533 22.1726 19.3137 22.1726 20.4824C22.1726 21.651 21.1522 22.6229 19.905 22.6229Z"  fill="#ffb800"/>
<path d="M6.95402 20.6328C7.23117 20.6328 7.45793 20.4245 7.45793 20.1699V15.9813C7.45793 15.5069 7.49573 15.2292 7.53352 15.0788C8.05003 15.125 9.07045 15.125 10.1791 14.7316H33.6615V0.441772H5.25331V6.06515C4.90057 5.94944 4.53523 5.86847 4.1321 5.86847C2.31801 5.86847 0.844059 7.24534 0.844059 8.93468C0.844059 9.94133 1.37317 10.8323 2.19203 11.3993C2.00306 11.4803 1.81409 11.5728 1.59993 11.6885C0.617296 12.2439 0 13.1696 0 14.1068V17.983C0 18.1103 0.0503949 18.226 0.151178 18.307L1.04562 19.1285L1.02043 20.1352C1.02043 20.2625 1.07082 20.3782 1.15901 20.4708C1.25979 20.5633 1.38577 20.6096 1.52434 20.6096H6.92882L6.95402 20.6328ZM6.27374 6.63211V1.379H32.6536V13.806H11.9428C12.8372 13.1696 13.5931 12.4175 13.971 11.8968C14.0592 11.7811 14.0844 11.6307 14.034 11.4918C13.9836 11.353 13.8702 11.2488 13.7317 11.191L12.3837 10.7281C12.1569 10.6471 11.8924 10.7282 11.7664 10.9249C10.6074 12.7299 8.20121 12.3018 7.14299 11.8505C6.87843 11.7001 6.58868 11.596 6.29893 11.4918C6.23594 11.4687 6.17295 11.434 6.10996 11.4108C6.17295 11.434 6.23594 11.4687 6.29893 11.4918V11.2488C6.99181 10.6819 7.45793 9.87192 7.45793 8.94626C7.45793 8.0206 7.00441 7.1875 6.29893 6.63211H6.27374ZM6.21074 6.58585C5.94619 6.38914 5.65644 6.22711 5.34149 6.11141C5.65644 6.22711 5.94619 6.38914 6.21074 6.58585ZM1.87708 8.94626C1.87708 7.76604 2.89751 6.81728 4.1447 6.81728C4.54783 6.81728 4.92576 6.92141 5.2659 7.10655C5.73202 7.3611 6.09736 7.75449 6.28633 8.24046V9.67522C6.09736 10.1612 5.74462 10.5546 5.2659 10.8091C4.93836 10.9827 4.56042 11.0984 4.1447 11.0984C2.89751 11.0984 1.87708 10.1381 1.87708 8.96942V8.94626ZM1.03303 17.7979V14.1068C1.03303 13.5052 1.47395 12.8687 2.14164 12.4869C2.87231 12.0704 3.26285 12.0125 4.1447 12.0125C4.52263 12.0125 4.88797 12.0588 5.2659 12.1398C5.60605 12.2208 5.94619 12.3365 6.28633 12.4869C6.41231 12.5448 6.53829 12.5911 6.66427 12.6605C7.99964 13.2275 10.8216 13.7134 12.4089 11.7117L12.7364 11.8274C12.0813 12.5216 11.0105 13.3894 10.0279 13.7828C10.0279 13.7828 10.0027 13.7944 9.9775 13.806C8.65473 14.3151 7.40754 14.1068 7.30676 14.0953C6.92882 14.0953 6.72725 14.3729 6.61387 14.7201C6.4627 15.1597 6.4627 15.7036 6.4627 15.9581V19.684H2.07865L2.10384 18.955C2.10384 18.8277 2.05345 18.7005 1.95267 18.6079L1.04562 17.7748L1.03303 17.7979Z" fill="#ffb800"/>
<path d="M16.0563 4.95652L12.9214 10.6837L13.8331 11.1047L16.9679 5.37749L16.0563 4.95652Z" fill="#ffb800"/>
</svg>
