<svg width="28" height="26" viewBox="0 0 28 26" fill="none" xmlns="http://www.w3.org/2000/svg">
<path d="M26.2882 1.80224C26.1917 1.53649 25.9575 1.32137 25.6682 1.23278C23.8082 0.650673 21.8793 0.359619 19.9366 0.359619C18.5726 0.359619 17.2223 0.49882 15.8859 0.789875C12.6343 1.48588 9.68584 2.99177 7.32983 5.15571C4.97381 7.31964 3.33424 10.0404 2.57646 13.0142C1.88756 15.7223 1.97024 18.5696 2.81069 21.265L2.8658 21.4422L0.289334 23.8086C0.0964439 23.9857 0 24.2135 0 24.4539C0 24.6944 0.110222 24.9222 0.289334 25.0993C0.661337 25.441 1.32267 25.441 1.69467 25.0993L4.27114 22.7329L4.46403 22.7835C7.4676 23.5808 10.5401 23.6314 13.4472 23.0113C16.685 22.3153 19.6472 20.8094 22.0033 18.6455C24.3593 16.4816 25.9988 13.7608 26.7566 10.787C27.5144 7.81317 27.3491 4.70014 26.2744 1.80224H26.2882ZM24.8277 10.3694C24.1526 13.0142 22.6922 15.4312 20.5979 17.3547C18.5037 19.2782 15.8721 20.6196 12.9925 21.2397C11.8352 21.4928 10.6641 21.6067 9.46539 21.6067C8.48716 21.6067 7.50894 21.5181 6.53071 21.3536L5.88315 21.2397L19.5646 8.67368C19.7575 8.49652 19.8539 8.26873 19.8539 8.02829C19.8539 7.78786 19.7437 7.56008 19.5646 7.38291C19.1788 7.02858 18.545 7.02858 18.1592 7.38291L4.47781 19.9489L4.3538 19.3541C3.95424 17.3547 3.99558 15.3553 4.49158 13.4318C5.1667 10.787 6.62716 8.36997 8.7214 6.44647C10.8156 4.52297 13.4334 3.18159 16.3268 2.56151C18.9721 1.99206 21.7553 2.06798 24.3593 2.76399L24.5384 2.81461L24.5935 2.97912C25.3513 5.37083 25.4339 7.92706 24.8139 10.3567L24.8277 10.3694Z" fill="#fff"/>
</svg>
