<?xml version="1.0" encoding="UTF-8"?><svg id="a" xmlns="http://www.w3.org/2000/svg" viewBox="0 0 43.04 43.06"><defs><style>.b{fill:#fff;}</style></defs><path class="b" d="M30.28,13.88c-.28-.18-.61-.28-.94-.28H11.85c-.33,0-.66,.1-.94,.28-.28,.18-.5,.44-.63,.75s-.18,.65-.12,.97c.05,.33,.2,.64,.42,.89l6.67,7.38v8.02c0,.31,.08,.62,.24,.89,.16,.27,.39,.49,.67,.64,.25,.14,.53,.21,.82,.21,.03,0,.06,0,.08,0,.32-.02,.62-.12,.88-.29l3.26-2.19c.23-.16,.43-.37,.56-.63,.13-.25,.2-.53,.2-.81l-.02-5.77,6.69-7.44c.23-.25,.38-.56,.42-.89,.05-.33,.01-.67-.12-.98-.14-.31-.36-.56-.63-.75Zm-7.71,8.83c-.29,.32-.45,.73-.45,1.16l.04,5.75-3.1,2.11v-7.86c0-.43-.16-.84-.45-1.16l-6.58-7.3H29.14l-6.56,7.29Z"/><path class="b" d="M20.59,2.68C10.3,2.68,1.93,11.05,1.93,21.34s8.37,18.66,18.66,18.66,18.66-8.37,18.66-18.66S30.88,2.68,20.59,2.68Zm0,35.51c-9.29,0-16.84-7.56-16.84-16.84S11.31,4.5,20.59,4.5s16.84,7.56,16.84,16.84-7.56,16.84-16.84,16.84Z"/></svg>
