<svg width="32" height="30" viewBox="0 0 32 30" fill="none" xmlns="http://www.w3.org/2000/svg">
<path d="M4.76387 14.9542H1.74923C0.781572 14.9542 0 15.6721 0 16.5608V27.5337C0 28.4225 0.781572 29.1403 1.74923 29.1403H4.76387C5.73153 29.1403 6.5131 28.4225 6.5131 27.5337V16.5608C6.5131 15.6721 5.73153 14.9542 4.76387 14.9542ZM5.27251 27.5223C5.27251 27.7844 5.04921 27.9894 4.76387 27.9894H1.74923C1.4639 27.9894 1.24059 27.7844 1.24059 27.5223V16.5494C1.24059 16.2987 1.4639 16.0822 1.74923 16.0822H4.76387C5.04921 16.0822 5.27251 16.2873 5.27251 16.5494V27.5223Z" fill="#ffb800"/>
<path d="M12.319 18.5662H9.3044C8.33674 18.5662 7.55518 19.284 7.55518 20.1728V27.5337C7.55518 28.4224 8.33674 29.1402 9.3044 29.1402H12.319C12.7905 29.1402 13.2247 28.9694 13.5596 28.6731C13.8946 28.3655 14.0683 27.9666 14.0683 27.5337V20.1728C14.0683 19.284 13.2867 18.5662 12.319 18.5662ZM12.8277 27.5337C12.8277 27.659 12.7781 27.7729 12.6788 27.8641C12.5796 27.9552 12.4555 28.0008 12.319 28.0008H9.3044C9.01907 28.0008 8.79577 27.7957 8.79577 27.5337V20.1728C8.79577 19.9221 9.01907 19.7057 9.3044 19.7057H12.319C12.6044 19.7057 12.8277 19.9107 12.8277 20.1728V27.5337Z" fill="#ffb800"/>
<path d="M19.8732 14.8174H16.8586C15.891 14.8174 15.1094 15.5353 15.1094 16.424V27.5222C15.1094 28.411 15.891 29.1288 16.8586 29.1288H19.8732C20.8409 29.1288 21.6225 28.411 21.6225 27.5222V16.424C21.6225 15.5353 20.8409 14.8174 19.8732 14.8174ZM20.3819 27.5222C20.3819 27.7843 20.1586 27.9894 19.8732 27.9894H16.8586C16.5733 27.9894 16.35 27.7843 16.35 27.5222V16.424C16.35 16.162 16.5733 15.9568 16.8586 15.9568H19.8732C20.1586 15.9568 20.3819 16.162 20.3819 16.424V27.5222Z" fill="#ffb800"/>
<path d="M27.4169 11.9575H24.4023C23.4346 11.9575 22.6531 12.6754 22.6531 13.5642V27.5338C22.6531 28.4226 23.4346 29.1404 24.4023 29.1404H27.4169C28.3846 29.1404 29.1662 28.4226 29.1662 27.5338V13.5642C29.1662 12.6754 28.3846 11.9575 27.4169 11.9575ZM27.9256 27.5338C27.9256 27.7959 27.7023 28.0009 27.4169 28.0009H24.4023C24.117 28.0009 23.8937 27.7959 23.8937 27.5338V13.5642C23.8937 13.3021 24.117 13.097 24.4023 13.097H27.4169C27.7023 13.097 27.9256 13.3021 27.9256 13.5642V27.5338Z" fill="#ffb800"/>
<path d="M5.01156 12.2879L8.22469 14.1452L11.8844 10.3964L16.5118 9.12022L17.0577 10.8066C17.0577 10.8066 17.1073 10.8636 17.1321 10.875C17.1569 10.875 17.1942 10.875 17.2314 10.8522L19.9111 7.53637L15.6558 6.11206C15.6558 6.11206 15.6062 6.13488 15.5938 6.14628C15.5814 6.15767 15.5566 6.19187 15.569 6.23745L16.1148 7.91241L11.8348 9.08607L8.22469 12.6639L4.82547 11.0003L0.284912 12.1056L0.657088 13.3362L5.01156 12.2879Z" fill="#ffb800"/>
<path d="M25.9158 0.688354C22.8515 0.688354 20.3704 2.97861 20.3704 5.78165C20.3704 8.58469 22.8639 10.875 25.9158 10.875C28.9677 10.875 31.4612 8.58469 31.4612 5.78165C31.4612 2.97861 28.9677 0.688354 25.9158 0.688354ZM25.9158 9.89503C23.447 9.89503 21.4373 8.04915 21.4373 5.78165C21.4373 3.51415 23.447 1.66826 25.9158 1.66826C28.3846 1.66826 30.3943 3.51415 30.3943 5.78165C30.3943 8.04915 28.3846 9.89503 25.9158 9.89503Z" fill="#ffb800"/>
<path d="M26.4131 5.28038C25.644 5.01831 25.3214 4.83599 25.3214 4.56252C25.3214 4.33463 25.5075 4.09538 26.103 4.09538C26.7605 4.09538 27.1699 4.28909 27.4056 4.38024L27.6661 3.43448C27.3684 3.29775 26.959 3.18381 26.3511 3.16102V2.43176H25.4579V3.21798C24.4902 3.3889 23.9319 3.97 23.9319 4.69925C23.9319 5.50826 24.5895 5.91849 25.5695 6.22614C26.2394 6.43124 26.5248 6.63636 26.5248 6.9554C26.5248 7.28584 26.1774 7.4681 25.6564 7.4681C25.0733 7.4681 24.5398 7.29717 24.1553 7.10346L23.8823 8.07204C24.2297 8.25435 24.8128 8.40247 25.4207 8.42526V9.21148H26.3015V8.3683C27.3436 8.19739 27.9142 7.57065 27.9142 6.83001C27.9142 6.08937 27.48 5.6222 26.4007 5.26897L26.4131 5.28038Z" fill="#ffb800"/>
</svg>
