<svg width="29" height="27" viewBox="0 0 29 27" fill="none" xmlns="http://www.w3.org/2000/svg">
<path d="M0.632785 10.5089H28.379C28.6511 10.5089 28.8994 10.3459 28.9704 10.1069C29.0532 9.86796 28.9586 9.60725 28.7339 9.46604L14.8607 0.547685C14.6478 0.406468 14.364 0.406468 14.1393 0.547685L0.266149 9.46604C0.041435 9.60725 -0.0531823 9.86796 0.0296071 10.1069C0.112396 10.3459 0.360762 10.5089 0.632785 10.5089ZM14.5059 1.72085L26.3803 9.3574H2.61973L14.4941 1.72085H14.5059Z" fill="#ffb800"/>
<path d="M7.16093 21.5349C7.52757 21.5349 7.83507 21.2634 7.83507 20.9157V11.8344C7.83507 11.4977 7.5394 11.2153 7.16093 11.2153H3.77839C3.41176 11.2153 3.10425 11.4868 3.10425 11.8344V20.9157C3.10425 21.2525 3.39993 21.5349 3.77839 21.5349H7.16093ZM4.45254 12.4536H6.48679V20.2966H4.45254V12.4536Z"  fill="#ffb800"/>
<path d="M13.3584 21.5348C13.7251 21.5348 14.0326 21.2632 14.0326 20.9156V11.8343C14.0326 11.4976 13.7251 11.2151 13.3584 11.2151H9.9759C9.60926 11.2151 9.30176 11.4867 9.30176 11.8343V20.9156C9.30176 21.2524 9.60926 21.5348 9.9759 21.5348H13.3584ZM10.65 12.4535H12.6843V20.2964H10.65V12.4535Z"  fill="#ffb800"/>
<path d="M19.4258 21.5348C19.7925 21.5348 20.1 21.2632 20.1 20.9156V11.8343C20.1 11.4976 19.7925 11.2151 19.4258 11.2151H16.0433C15.6766 11.2151 15.3691 11.4867 15.3691 11.8343V20.9156C15.3691 21.2524 15.6766 21.5348 16.0433 21.5348H19.4258ZM16.7174 12.4535H18.7517V20.2964H16.7174V12.4535Z"  fill="#ffb800"/>
<path d="M25.5882 21.5348C25.9548 21.5348 26.2623 21.2632 26.2623 20.9156V11.8343C26.2623 11.4976 25.9548 11.2151 25.5882 11.2151H22.2056C21.839 11.2151 21.5315 11.4867 21.5315 11.8343V20.9156C21.5315 21.2524 21.839 21.5348 22.2056 21.5348H25.5882ZM22.8798 12.4535H24.914V20.2964H22.8798V12.4535Z"  fill="#ffb800"/>
<path d="M1.55579 23.1534V26.2602C1.55579 26.5969 1.85146 26.8794 2.22993 26.8794H26.7947C27.1613 26.8794 27.4689 26.6078 27.4689 26.2602V23.1534C27.4689 22.8167 27.1732 22.5342 26.7947 22.5342H2.22993C1.86329 22.5342 1.55579 22.8058 1.55579 23.1534ZM2.90407 23.7726H26.1206V25.641H2.90407V23.7726Z"  fill="#ffb800"/>
</svg>
