<svg width="26" height="26" viewBox="0 0 26 26" fill="none" xmlns="http://www.w3.org/2000/svg">
<path d="M23.6346 15.6689C23.494 16.3836 23.4173 16.7538 23.0978 16.907C22.8294 17.0346 22.561 16.9325 22.0881 16.69L21.8325 20.8127L25.5389 18.9875C24.8232 18.2982 24.8232 18.0429 25.1555 16.8559C26.2419 12.8863 25.5645 9.26141 23.1617 6.03216C22.8422 5.59819 22.4971 5.13868 22.3565 5.12592C22.2159 5.12592 21.858 5.47054 21.449 5.86622C21.0784 6.22361 21.0528 6.27468 21.3596 6.6193C23.5707 9.21037 24.3375 12.2609 23.6474 15.6561L23.6346 15.6689Z" fill="#fff"/>
<path d="M5.55002 4.41101C5.94623 4.84498 6.0357 4.84499 6.54694 4.43654C9.48657 2.03694 12.8224 1.46256 16.7334 2.63683L17.1168 2.75172L16.9123 3.09633C16.8612 3.17292 16.8356 3.23674 16.8101 3.30056C16.7589 3.41544 16.7078 3.49202 16.6311 3.58137C16.5417 3.68348 16.4778 3.76005 16.4522 3.81111C16.5161 3.82387 16.6056 3.83664 16.7717 3.83664C17.8709 3.87493 18.9828 3.96428 20.0564 4.05362L20.4015 4.07916C20.5038 4.07916 20.5677 4.07916 20.6188 4.07916C20.606 4.04086 20.5805 3.98981 20.5549 3.93875C19.967 2.80277 19.4046 1.64125 18.8422 0.44145C18.8295 0.403158 18.8167 0.377641 18.8039 0.352113C18.3693 1.32217 17.6408 1.09242 17.104 0.913726C15.7237 0.466991 14.3817 0.25 13.0652 0.25C10.4579 0.25 7.99118 1.11794 5.69061 2.84106C5.34552 3.09634 4.91097 3.42819 4.89819 3.5303C4.89819 3.63241 5.19215 3.95151 5.48612 4.27061L5.57558 4.35996L5.55002 4.41101Z" fill="#fff"/>
<path d="M2.03468 10.3973C2.17527 9.72081 2.25196 9.33789 2.57149 9.19748C2.83989 9.06985 3.10829 9.17195 3.5684 9.41447L3.8368 5.29175L0.130316 7.09146C0.360373 7.21909 0.513744 7.37225 0.628773 7.56371C0.884393 8.02321 0.731023 8.53378 0.590432 9.03157L0.539307 9.22302C-0.5982 13.1415 0.0664116 16.7792 2.50758 20.0595C2.83988 20.5063 3.18497 20.9658 3.31278 20.9785C3.45337 20.9913 3.81124 20.6339 4.19467 20.2638L4.25858 20.2127C4.60366 19.8808 4.62922 19.8425 4.29692 19.4469C2.08581 16.8686 1.33173 13.818 2.03468 10.3973Z" fill="#fff"/>
<path d="M20.0299 21.6296C19.6848 21.2722 19.6209 21.2722 19.1864 21.6296C16.4257 23.9143 13.2304 24.6164 9.66455 23.7101C9.30668 23.6208 8.94882 23.4932 8.85935 23.1613C8.7571 22.8294 8.97438 22.5359 9.15331 22.3316L9.17888 22.2934C9.17888 22.2934 9.12776 22.2934 9.10219 22.2934C8.3609 22.2678 7.63238 22.204 6.89108 22.1529L6.26481 22.1019H5.84304C5.67689 22.0891 5.52352 22.0764 5.35737 22.0508C5.19121 22.0253 5.08897 22.0126 5.03784 22.0126C5.0634 22.0764 5.10174 22.1785 5.17842 22.3316C5.62576 23.1613 6.04754 24.0293 6.44375 24.8589L6.78883 25.5864C6.81439 25.6502 6.85274 25.7013 6.86552 25.7396L6.89108 25.6885C7.1467 25.1652 7.49178 25.0121 7.83687 25.0121C8.06693 25.0121 8.29698 25.0759 8.51426 25.1524C12.617 26.4927 16.464 25.8672 19.9405 23.3017C20.3111 23.0337 20.7584 22.7018 20.7712 22.5742C20.7712 22.4593 20.4517 22.1019 20.0938 21.719L20.0299 21.6424V21.6296Z" fill="#fff"/>
</svg>
