<svg width="42" height="23" viewBox="0 0 42 23" fill="none" xmlns="http://www.w3.org/2000/svg">
<path d="M41.9572 16.183C41.9572 16.183 39.9404 11.3544 35.0304 10.0881C36.6995 9.22534 37.854 7.49985 37.854 5.49605C37.854 2.62951 35.5173 0.291744 32.652 0.291744C29.7867 0.291744 27.45 2.62951 27.45 5.49605C27.45 7.47202 28.5627 9.16968 30.1901 10.0463C28.2706 10.4916 26.8936 11.4239 25.9339 12.3841C26.1703 11.7857 26.3094 11.1456 26.3094 10.4777C26.3094 7.61117 23.9727 5.2734 21.1074 5.2734C18.2421 5.2734 15.9054 7.61117 15.9054 10.4777C15.9054 11.3126 16.1279 12.1058 16.4757 12.8016C15.502 11.6883 14.0138 10.5473 11.8161 10.0463C13.4713 9.16968 14.6119 7.45811 14.6119 5.45431C14.6119 2.58777 12.2751 0.25 9.40984 0.25C6.54456 0.25 4.20783 2.58777 4.20783 5.45431C4.20783 7.47202 5.36229 9.19751 7.04529 10.0603C2.07974 11.2848 0.0629092 16.1273 0.0490001 16.183C-0.0900911 16.5447 0.076819 16.9483 0.424547 17.0875C0.508002 17.1292 0.605369 17.1431 0.688824 17.1431C0.967006 17.1431 1.21737 16.9761 1.32864 16.7117C1.42601 16.4891 3.66537 11.1735 9.40984 11.1735C15.1543 11.1735 16.6704 15.6263 16.74 15.8212C16.7678 15.8907 16.7956 15.9325 16.8373 15.9881C14.431 17.004 12.5672 18.8547 11.8718 21.1785C11.7605 21.5264 11.9691 21.9021 12.3169 21.9995C12.6646 22.1109 13.0401 21.9021 13.1375 21.5542C14.0277 18.5625 17.2685 16.4613 21.024 16.4613C24.7794 16.4613 28.1733 18.6877 28.9661 21.7491C29.0495 22.0413 29.3138 22.25 29.6059 22.25C29.6615 22.25 29.7172 22.25 29.7728 22.2222C30.1205 22.1248 30.3431 21.7769 30.2457 21.4151C29.6198 18.9938 27.6725 17.0318 25.155 15.9742C25.1967 15.9186 25.2245 15.8768 25.2523 15.8073C25.3219 15.6124 26.8797 11.1595 32.5824 11.1595C38.2852 11.1595 40.5663 16.4613 40.6636 16.6978C40.7749 16.9622 41.0392 17.1292 41.3035 17.1292C41.3869 17.1292 41.4843 17.1153 41.5677 17.0735C41.9294 16.9344 42.0963 16.5308 41.9433 16.169L41.9572 16.183ZM5.62656 5.45431C5.62656 3.35311 7.33739 1.64152 9.43766 1.64152C11.5379 1.64152 13.2488 3.35311 13.2488 5.45431C13.2488 7.55551 11.5379 9.26707 9.43766 9.26707C7.33739 9.26707 5.62656 7.55551 5.62656 5.45431ZM21.1074 6.66493C23.2077 6.66493 24.9185 8.37651 24.9185 10.4777C24.9185 12.5789 23.2077 14.2905 21.1074 14.2905C19.0071 14.2905 17.2963 12.5789 17.2963 10.4777C17.2963 8.37651 19.0071 6.66493 21.1074 6.66493ZM18.0752 15.3759C18.0752 15.3759 17.8944 14.8749 17.5049 14.207C17.9918 14.6801 18.562 15.0419 19.2019 15.2924C18.8263 15.362 18.4508 15.4315 18.0891 15.5289C18.0891 15.4733 18.0891 15.4176 18.0752 15.362V15.3759ZM22.9434 15.3202C23.4581 15.1254 23.9171 14.8471 24.3343 14.5131C24.0701 15.0141 23.9449 15.3619 23.9449 15.3759C23.931 15.4315 23.931 15.4872 23.931 15.5429C23.6111 15.4594 23.2911 15.3759 22.9573 15.3202H22.9434ZM28.8409 5.48212C28.8409 3.38092 30.5517 1.66936 32.652 1.66936C34.7523 1.66936 36.4631 3.38092 36.4631 5.48212C36.4631 7.58333 34.7523 9.29491 32.652 9.29491C30.5517 9.29491 28.8409 7.58333 28.8409 5.48212Z" fill="#fff"/>
</svg>
