<?xml version="1.0" encoding="UTF-8"?><svg id="a" xmlns="http://www.w3.org/2000/svg" viewBox="0 0 43.04 43.06"><defs><style>.b{fill:#255B87;;}</style></defs><path class="b" d="M20.59,2.68C10.3,2.68,1.93,11.05,1.93,21.34s8.37,18.66,18.66,18.66,18.66-8.37,18.66-18.66S30.88,2.68,20.59,2.68Zm0,35.51c-9.29,0-16.84-7.56-16.84-16.84S11.31,4.5,20.59,4.5s16.84,7.56,16.84,16.84-7.56,16.84-16.84,16.84Z"/><path class="b" d="M33.53,25.7c-.36-.36-.93-.36-1.29,0l-3,3v-8.73c0-.5-.41-.91-.91-.91s-.91,.41-.91,.91v8.73l-3-3c-.36-.36-.93-.36-1.29,0-.36,.36-.36,.93,0,1.29l4.55,4.55c.08,.08,.18,.15,.3,.2,.11,.05,.23,.07,.35,.07s.24-.02,.35-.07c.11-.05,.21-.11,.3-.2l4.55-4.55c.36-.36,.36-.93,0-1.29Z"/><path class="b" d="M21.05,20.88H12.85c-.5,0-.91,.41-.91,.91s.41,.91,.91,.91h8.19c.5,0,.91-.41,.91-.91s-.41-.91-.91-.91Z"/><path class="b" d="M12.85,15.42h15.48c.5,0,.91-.41,.91-.91s-.41-.91-.91-.91H12.85c-.5,0-.91,.41-.91,.91s.41,.91,.91,.91Z"/><path class="b" d="M19.23,28.17h-6.37c-.5,0-.91,.41-.91,.91s.41,.91,.91,.91h6.37c.5,0,.91-.41,.91-.91s-.41-.91-.91-.91Z" /></svg>
