<svg width="30" height="29" viewBox="0 0 30 29" fill="none" xmlns="http://www.w3.org/2000/svg">
<path d="M0.882422 15.1573C1.16632 15.3469 1.50184 15.4654 1.85026 15.501L7.07657 16.0344L13.2062 21.6524L13.7869 26.4526C13.8256 26.7726 13.9547 27.0808 14.1482 27.3416C14.3547 27.6023 14.6257 27.8156 14.9483 27.9579C15.2193 28.0764 15.529 28.1475 15.8516 28.1475C15.8903 28.1475 15.929 28.1475 15.9677 28.1475C16.3162 28.1238 16.6646 28.029 16.9485 27.8512L23.9298 23.774C24.1879 23.6199 24.4202 23.4066 24.5879 23.1577C24.7557 22.9088 24.846 22.6362 24.8847 22.3399L25.5041 16.0225C30.2659 10.9734 30.1498 4.81018 29.8788 2.416C29.8271 1.98931 29.6207 1.57448 29.2852 1.26632C28.9496 0.958156 28.5109 0.768491 28.0463 0.721082C25.4009 0.448477 18.5874 0.294425 13.0771 4.75092L6.3281 5.31981C6.0184 5.34352 5.7087 5.43835 5.4377 5.59243C5.16671 5.73466 4.94733 5.94801 4.76667 6.19691L0.327529 12.609C0.146867 12.8816 0.0307267 13.1898 0.00491771 13.5098C-0.0208912 13.8298 0.0565326 14.1499 0.198482 14.4462C0.353335 14.7425 0.585619 14.9914 0.856613 15.1691L0.882422 15.1573ZM23.0781 22.1976C23.0781 22.1976 23.0652 22.2687 23.0523 22.2924C23.0265 22.328 23.0007 22.3517 22.962 22.3754L15.9807 26.4526C15.9807 26.4526 15.9032 26.4882 15.8516 26.4882C15.8 26.4882 15.7613 26.4882 15.7226 26.4645C15.6838 26.4526 15.6451 26.4171 15.6193 26.3815C15.5935 26.346 15.5806 26.3104 15.5806 26.2749L15.0515 21.8658C18.6519 20.8583 21.4134 19.4479 23.5169 17.8241L23.091 22.1858L23.0781 22.1976ZM27.8528 2.36858C27.9302 2.36858 27.9818 2.41599 28.0076 2.43969C28.0463 2.47525 28.0721 2.53451 28.085 2.58191C28.4464 5.78206 28.5109 16.4966 14.3418 20.3487L8.52187 15.0032C12.6255 1.87079 24.3557 2.01301 27.8657 2.36858H27.8528ZM1.86316 13.4861L6.3023 7.07398C6.3023 7.07398 6.35392 7.01472 6.37972 7.00287C6.41844 6.97916 6.45715 6.96731 6.48296 6.96731L11.1286 6.57616C9.38647 8.49625 7.87665 11.0327 6.81848 14.3395L2.03092 13.8535C2.03092 13.8535 1.94058 13.8298 1.90187 13.8061C1.86316 13.7824 1.83735 13.7587 1.82445 13.7113C1.81154 13.6758 1.79864 13.6402 1.79864 13.6047C1.79864 13.5691 1.81154 13.5217 1.83735 13.4861H1.86316Z" fill="#ffb800"/>
</svg>
