<svg xmlns="http://www.w3.org/2000/svg" version="1.1" width="1927px" height="650px" style="shape-rendering:geometricPrecision; text-rendering:geometricPrecision; image-rendering:optimizeQuality; fill-rule:evenodd; clip-rule:evenodd" xmlns:xlink="http://www.w3.org/1999/xlink">
<g><path style="opacity:0.911" fill="#fefefe" d="M 425.5,-0.5 C 431.167,-0.5 436.833,-0.5 442.5,-0.5C 443.176,9.7907 441.176,19.4574 436.5,28.5C 434.958,29.7468 433.458,29.7468 432,28.5C 431.333,26.5 430.667,24.5 430,22.5C 428.287,21.1218 426.953,19.4552 426,17.5C 425.501,11.5092 425.334,5.50924 425.5,-0.5 Z M 428.5,12.5 C 429.5,12.5 430.5,12.5 431.5,12.5C 430.941,17.6393 429.941,17.6393 428.5,12.5 Z"/></g>
<g><path style="opacity:0.951" fill="#fefefe" d="M 491.5,1.5 C 493.167,1.5 494.833,1.5 496.5,1.5C 496.836,8.52739 497.503,15.5274 498.5,22.5C 498.43,23.7716 498.097,24.9383 497.5,26C 482.816,26.6278 468.149,27.4611 453.5,28.5C 451.519,28.5629 449.852,27.8962 448.5,26.5C 448.072,23.7574 446.905,21.4241 445,19.5C 444.333,17.5 444.333,15.5 445,13.5C 446.665,10.4872 447.832,7.32049 448.5,4C 462.993,3.18832 477.326,2.35498 491.5,1.5 Z"/></g>
<g><path style="opacity:0.937" fill="#fefefe" d="M 407.5,3.5 C 421.13,3.30597 426.63,9.97264 424,23.5C 422.878,25.6238 421.378,27.4571 419.5,29C 412.355,30.1192 405.355,31.4526 398.5,33C 396.408,31.1473 395.408,28.8139 395.5,26C 396.743,20.8592 397.91,15.6925 399,10.5C 400.851,6.84324 403.684,4.50991 407.5,3.5 Z"/></g>
<g><path style="opacity:0.93" fill="#fefefe" d="M 499.5,6.5 C 506.304,6.06383 512.971,6.7305 519.5,8.5C 519.833,9.33333 520.167,10.1667 520.5,11C 519.292,18.4774 517.625,25.8107 515.5,33C 510.939,34.9215 506.439,34.7549 502,32.5C 499.861,23.9776 499.027,15.3109 499.5,6.5 Z"/></g>
<g><path style="opacity:0.953" fill="#fefefe" d="M 367.5,8.5 C 372.872,8.46842 378.039,9.46842 383,11.5C 392.23,6.04881 396.23,8.71547 395,19.5C 388.964,21.8726 384.964,26.2059 383,32.5C 379.919,35.2931 376.419,37.4597 372.5,39C 363.561,42.5347 354.561,45.8681 345.5,49C 340.746,51.1414 336.079,53.4748 331.5,56C 328.101,56.546 324.768,56.2127 321.5,55C 315.497,47.6827 313.664,39.516 316,30.5C 327.832,24.6704 339.999,19.8371 352.5,16C 357.292,12.9371 362.292,10.4371 367.5,8.5 Z"/></g>
<g><path style="opacity:0.899" fill="#fefefe" d="M 538.5,21.5 C 545.311,21.8513 551.978,23.018 558.5,25C 564.844,28.5038 570.844,32.5038 576.5,37C 581.147,36.5362 585.814,35.7028 590.5,34.5C 595.763,34.7041 597.929,37.3708 597,42.5C 592.682,47.5696 587.515,48.7363 581.5,46C 585.83,44.8394 589.497,42.6728 592.5,39.5C 591.672,38.5853 590.672,37.9186 589.5,37.5C 583.418,39.3051 577.418,41.3051 571.5,43.5C 571.649,42.448 571.483,41.448 571,40.5C 570.644,43.7288 568.81,45.2288 565.5,45C 561.789,45.4389 558.122,45.1056 554.5,44C 543.031,40.2661 532.031,35.4328 521.5,29.5C 520.24,27.6471 520.24,25.8138 521.5,24C 527.331,23.2903 532.998,22.457 538.5,21.5 Z"/></g>
<g><path style="opacity:0.885" fill="#fefefe" d="M 599.5,44.5 C 606.993,43.8145 609.16,46.8145 606,53.5C 604.58,55.422 602.747,56.7554 600.5,57.5C 603.147,61.4817 602.814,65.315 599.5,69C 586.456,67.6422 575.789,61.8089 567.5,51.5C 567.986,49.5026 569.153,48.1693 571,47.5C 574.461,48.2181 577.961,48.7181 581.5,49C 587.075,51.3713 592.575,53.8713 598,56.5C 596.876,52.3199 597.376,48.3199 599.5,44.5 Z"/></g>
<g><path style="opacity:0.931" fill="#fefefe" d="M 652.5,90.5 C 651.089,91.9076 649.423,92.9076 647.5,93.5C 644.387,92.4441 641.387,91.1108 638.5,89.5C 631.481,92.1678 624.481,92.0012 617.5,89C 611.91,84.9548 606.41,80.7881 601,76.5C 600.333,74.8333 600.333,73.1667 601,71.5C 604.081,65.6688 607.415,60.0021 611,54.5C 613.531,50.7984 616.698,49.9651 620.5,52C 628.601,57.103 635.768,63.2697 642,70.5C 643.139,73.5833 644.472,76.5833 646,79.5C 648.667,81.5 651.333,83.5 654,85.5C 653.866,87.1893 653.366,88.856 652.5,90.5 Z M 621.5,78.5 C 626.006,78.7877 630.006,80.2877 633.5,83C 629.427,86.0386 625.26,85.872 621,82.5C 620.421,81.0715 620.588,79.7382 621.5,78.5 Z"/></g>
<g><path style="opacity:0.939" fill="#fefefe" d="M 104.5,70.5 C 120.698,67.7542 134.864,71.7542 147,82.5C 147.667,84.1667 147.667,85.8333 147,87.5C 144.232,90.9407 140.899,93.6073 137,95.5C 122.227,82.0426 107.894,82.376 94,96.5C 86.2303,113.856 91.0636,126.356 108.5,134C 119.429,137.06 128.095,134.06 134.5,125C 127.968,123.539 121.468,123.039 115,123.5C 114.501,118.511 114.334,113.511 114.5,108.5C 127.5,108.5 140.5,108.5 153.5,108.5C 154.532,128.926 145.532,142.426 126.5,149C 95.3475,153.769 77.6809,140.603 73.5,109.5C 74.6744,89.0128 85.0077,76.0128 104.5,70.5 Z"/></g>
<g><path style="opacity:0.946" fill="#fefefe" d="M 165.5,70.5 C 177.07,69.7058 188.403,70.8724 199.5,74C 205.545,76.9013 209.045,81.7346 210,88.5C 213.28,101.631 208.78,110.797 196.5,116C 191.292,116.868 186.126,117.701 181,118.5C 180.5,128.828 180.334,139.161 180.5,149.5C 174.369,150.092 168.536,149.425 163,147.5C 162.333,123.167 162.333,98.8333 163,74.5C 163.48,72.867 164.313,71.5336 165.5,70.5 Z M 182.5,87.5 C 185.253,88.0222 187.92,88.8555 190.5,90C 193.836,94.6631 192.836,97.9965 187.5,100C 185.19,100.497 182.857,100.663 180.5,100.5C 179.999,95.8468 180.666,91.5135 182.5,87.5 Z"/></g>
<g><path style="opacity:0.944" fill="#fefefe" d="M 238.5,71.5 C 239.79,72.0577 240.623,73.0577 241,74.5C 245.875,89.6722 251.209,104.672 257,119.5C 262.33,104.178 267.663,88.8443 273,73.5C 278.407,72.5268 283.907,72.1934 289.5,72.5C 293.501,97.8377 297.501,123.171 301.5,148.5C 296.435,148.781 291.435,148.448 286.5,147.5C 283.593,133.248 281.093,118.915 279,104.5C 274.074,116.943 269.741,129.61 266,142.5C 265.208,144.587 264.041,146.421 262.5,148C 258.129,148.828 253.795,148.661 249.5,147.5C 244.952,133.404 240.119,119.404 235,105.5C 232.48,119.483 229.813,133.483 227,147.5C 221.928,148.471 216.762,148.805 211.5,148.5C 215.433,123.806 219.599,99.1396 224,74.5C 228.716,72.8981 233.55,71.8981 238.5,71.5 Z"/></g>
<g><path style="opacity:0.94" fill="#fefefe" d="M 311.5,72.5 C 316.833,72.5 322.167,72.5 327.5,72.5C 327.333,92.1695 327.5,111.836 328,131.5C 334.753,132.314 341.586,132.814 348.5,133C 349.632,137.413 349.799,141.913 349,146.5C 348.5,147 348,147.5 347.5,148C 335.591,148.821 323.757,148.654 312,147.5C 311.5,122.502 311.333,97.5022 311.5,72.5 Z"/></g>
<g><path style="opacity:0.889" fill="#fefefe" d="M 652.5,100.5 C 652.5,99.8333 652.167,99.5 651.5,99.5C 651.5,98.8333 651.167,98.5 650.5,98.5C 650.584,95.6726 651.25,93.006 652.5,90.5C 654.463,89.0401 656.296,87.3734 658,85.5C 663.266,88.8609 667.433,93.1942 670.5,98.5C 669.226,101.609 667.06,103.942 664,105.5C 659.965,104.231 656.132,102.564 652.5,100.5 Z"/></g>
<g><path style="opacity:0.928" fill="#fefefe" d="M 650.5,98.5 C 651.167,98.5 651.5,98.8333 651.5,99.5C 652.167,99.5 652.5,99.8333 652.5,100.5C 656.586,105.011 658.752,110.344 659,116.5C 663.395,111.399 668.562,107.399 674.5,104.5C 681.486,108.992 686.986,114.992 691,122.5C 691.76,126.225 691.593,129.892 690.5,133.5C 691.347,134.845 692.513,135.845 694,136.5C 694.743,138.441 694.576,140.274 693.5,142C 690.844,143.91 688.011,145.41 685,146.5C 682.704,146.091 680.87,144.924 679.5,143C 676.118,142.824 672.785,142.324 669.5,141.5C 664.193,136.205 659.359,130.539 655,124.5C 654.175,122.299 654.675,120.466 656.5,119C 646.358,117.202 639.525,111.368 636,101.5C 634.162,94.6785 636.662,92.1785 643.5,94C 646.202,95.0121 648.535,96.5121 650.5,98.5 Z"/></g>
<g><path style="opacity:0.913" fill="#fefffe" d="M 919.5,124.5 C 923.833,124.5 928.167,124.5 932.5,124.5C 932.5,153.167 932.5,181.833 932.5,210.5C 928.167,210.5 923.833,210.5 919.5,210.5C 919.5,181.833 919.5,153.167 919.5,124.5 Z"/></g>
<g><path style="opacity:0.936" fill="#fefefe" d="M 1014.5,124.5 C 1018.83,124.5 1023.17,124.5 1027.5,124.5C 1027.33,137.171 1027.5,149.838 1028,162.5C 1038.93,153.227 1049.93,153.227 1061,162.5C 1068.06,174.124 1069.39,186.458 1065,199.5C 1059.28,209.975 1050.44,214.142 1038.5,212C 1034.64,210.819 1031.14,208.986 1028,206.5C 1027.51,207.793 1027.34,209.127 1027.5,210.5C 1023.17,210.5 1018.83,210.5 1014.5,210.5C 1014.5,181.833 1014.5,153.167 1014.5,124.5 Z M 1035.5,167.5 C 1047.73,166.391 1054.06,172.058 1054.5,184.5C 1053.24,198.961 1045.91,203.461 1032.5,198C 1026.65,191.421 1025.15,183.921 1028,175.5C 1030.03,172.308 1032.53,169.641 1035.5,167.5 Z"/></g>
<g><path style="opacity:0.988" fill="#fefffe" d="M 1145.5,124.5 C 1149.5,124.5 1153.5,124.5 1157.5,124.5C 1157.5,153.167 1157.5,181.833 1157.5,210.5C 1153.5,210.5 1149.5,210.5 1145.5,210.5C 1145.5,181.833 1145.5,153.167 1145.5,124.5 Z"/></g>
<g><path style="opacity:0.933" fill="#fefefe" d="M 1620.5,124.5 C 1624.5,124.5 1628.5,124.5 1632.5,124.5C 1632.33,137.504 1632.5,150.504 1633,163.5C 1642.77,154.761 1653.61,153.261 1665.5,159C 1667.62,160.731 1669.12,162.898 1670,165.5C 1671.45,180.428 1671.95,195.428 1671.5,210.5C 1667.17,210.5 1662.83,210.5 1658.5,210.5C 1658.67,198.829 1658.5,187.162 1658,175.5C 1657.15,169.492 1653.65,166.492 1647.5,166.5C 1640.63,166.834 1636.13,170.167 1634,176.5C 1633.5,187.828 1633.33,199.162 1633.5,210.5C 1629.17,210.5 1624.83,210.5 1620.5,210.5C 1620.5,181.833 1620.5,153.167 1620.5,124.5 Z"/></g>
<g><path style="opacity:0.925" fill="#fefefe" d="M 861.5,127.5 C 877.204,125.065 890.204,129.732 900.5,141.5C 897.571,144.636 894.238,147.303 890.5,149.5C 877.29,138.037 863.623,137.537 849.5,148C 840.251,160.383 839.084,173.55 846,187.5C 857.008,200.067 870.175,202.9 885.5,196C 890.956,192.254 893.623,187.088 893.5,180.5C 887.167,180.5 880.833,180.5 874.5,180.5C 874.5,176.5 874.5,172.5 874.5,168.5C 885.5,168.5 896.5,168.5 907.5,168.5C 908.07,203.414 891.07,217.581 856.5,211C 836.951,204.435 826.951,190.768 826.5,170C 827.876,147.142 839.543,132.975 861.5,127.5 Z"/></g>
<g><path style="opacity:0.877" fill="#fefefe" d="M 1690.5,127.5 C 1699.51,127.507 1702.67,131.84 1700,140.5C 1694.97,144.779 1690.3,144.446 1686,139.5C 1684.31,134.131 1685.81,130.131 1690.5,127.5 Z"/></g>
<g><path style="opacity:0.943" fill="#fefefe" d="M 1208.5,129.5 C 1219.51,129.333 1230.51,129.5 1241.5,130C 1251.89,133.245 1257.22,140.412 1257.5,151.5C 1257.44,164.387 1251.11,171.887 1238.5,174C 1232.84,174.499 1227.18,174.666 1221.5,174.5C 1221.5,186.5 1221.5,198.5 1221.5,210.5C 1217.17,210.5 1212.83,210.5 1208.5,210.5C 1208.5,183.5 1208.5,156.5 1208.5,129.5 Z M 1222.5,141.5 C 1228.38,141.048 1234.05,141.882 1239.5,144C 1241.89,146.306 1242.89,149.139 1242.5,152.5C 1243.17,156.281 1241.84,159.114 1238.5,161C 1233.25,162.271 1227.91,162.771 1222.5,162.5C 1222.5,155.5 1222.5,148.5 1222.5,141.5 Z"/></g>
<g><path style="opacity:0.957" fill="#fefefe" d="M 452.5,136.5 C 459.459,143.971 461.292,152.637 458,162.5C 446.799,167.766 435.466,172.766 424,177.5C 422.739,177.241 421.739,176.574 421,175.5C 415.972,164.723 413.472,153.39 413.5,141.5C 426.649,139.905 439.649,138.239 452.5,136.5 Z"/></g>
<g><path style="opacity:0.918" fill="#fefefe" d="M 1372.5,137.5 C 1376.83,137.5 1381.17,137.5 1385.5,137.5C 1385.5,144.167 1385.5,150.833 1385.5,157.5C 1388.5,157.5 1391.5,157.5 1394.5,157.5C 1394.5,161.167 1394.5,164.833 1394.5,168.5C 1391.5,168.5 1388.5,168.5 1385.5,168.5C 1385.5,182.5 1385.5,196.5 1385.5,210.5C 1381.17,210.5 1376.83,210.5 1372.5,210.5C 1372.5,196.5 1372.5,182.5 1372.5,168.5C 1369.5,168.5 1366.5,168.5 1363.5,168.5C 1363.66,165.813 1363.5,163.146 1363,160.5C 1361.94,163.618 1360.61,166.618 1359,169.5C 1349.88,164.655 1344.22,167.322 1342,177.5C 1341.5,188.495 1341.33,199.495 1341.5,210.5C 1337.17,210.5 1332.83,210.5 1328.5,210.5C 1328.5,192.833 1328.5,175.167 1328.5,157.5C 1332.83,157.5 1337.17,157.5 1341.5,157.5C 1341.34,158.873 1341.51,160.207 1342,161.5C 1343.96,158.865 1346.46,157.031 1349.5,156C 1357.12,156.648 1364.79,157.148 1372.5,157.5C 1372.5,150.833 1372.5,144.167 1372.5,137.5 Z"/></g>
<g><path style="opacity:0.938" fill="#fefefe" d="M 482.5,162.5 C 477.681,161.434 472.681,160.6 467.5,160C 465.671,159.727 464.171,158.893 463,157.5C 462.628,151.358 463.795,145.525 466.5,140C 477.247,140.392 487.914,141.725 498.5,144C 499.833,145.333 501.167,146.667 502.5,148C 511.113,150.154 519.78,151.987 528.5,153.5C 528.5,156.167 528.5,158.833 528.5,161.5C 518.5,160.916 508.5,160.75 498.5,161C 497.006,162.946 495.006,163.779 492.5,163.5C 489.183,162.947 485.85,162.614 482.5,162.5 Z"/></g>
<g><path style="opacity:0.907" fill="#fefefe" d="M 696.5,142.5 C 707.151,141.955 710.485,146.455 706.5,156C 709.586,156.984 712.419,158.484 715,160.5C 715.45,164.188 715.283,167.854 714.5,171.5C 721.097,171.679 723.597,175.012 722,181.5C 721.365,182.966 720.531,184.3 719.5,185.5C 722.027,186.214 724.527,186.88 727,187.5C 729.682,200.897 732.682,214.23 736,227.5C 738.648,229.82 740.981,232.486 743,235.5C 745.221,249.995 747.388,264.495 749.5,279C 749.385,280.895 748.718,282.562 747.5,284C 739.706,286.744 731.706,287.744 723.5,287C 721.741,285.992 720.574,284.492 720,282.5C 717.295,267.243 715.629,251.91 715,236.5C 715.615,234.884 716.615,233.551 718,232.5C 718.167,231 718.333,229.5 718.5,228C 716.948,214.535 715.948,201.035 715.5,187.5C 713.801,187.34 712.134,187.506 710.5,188C 705.799,195.395 700.299,196.229 694,190.5C 693.667,187.167 693.333,183.833 693,180.5C 689.841,179.426 687.507,177.426 686,174.5C 686.333,171.5 686.667,168.5 687,165.5C 679.459,163.379 677.459,158.713 681,151.5C 682.837,149.137 685.004,148.47 687.5,149.5C 688.938,149.281 690.271,148.781 691.5,148C 692.843,145.768 694.51,143.934 696.5,142.5 Z M 699.5,145.5 C 704.22,146.276 705.887,148.942 704.5,153.5C 700.595,155.362 697.595,154.528 695.5,151C 696.665,149.008 697.998,147.175 699.5,145.5 Z M 686.5,152.5 C 692.731,154.937 693.065,158.27 687.5,162.5C 681.201,159.699 680.867,156.366 686.5,152.5 Z M 696.5,158.5 C 698.346,158.222 699.68,158.889 700.5,160.5C 699.061,162.553 697.061,163.553 694.5,163.5C 694.392,161.486 695.058,159.82 696.5,158.5 Z M 706.5,159.5 C 711.549,160.194 713.216,162.861 711.5,167.5C 707.49,170.667 704.823,169.834 703.5,165C 703.613,162.601 704.613,160.768 706.5,159.5 Z M 692.5,166.5 C 697.544,167.19 699.211,169.856 697.5,174.5C 695.044,177.08 692.544,177.08 690,174.5C 688.837,171.029 689.67,168.362 692.5,166.5 Z M 703.5,172.5 C 704.833,172.5 706.167,172.5 707.5,172.5C 706.903,176.475 704.57,177.975 700.5,177C 701.386,175.385 702.386,173.885 703.5,172.5 Z M 712.5,174.5 C 719.492,174.976 720.825,177.809 716.5,183C 710.92,184.261 709.087,182.094 711,176.5C 711.717,175.956 712.217,175.289 712.5,174.5 Z M 698.5,181.5 C 703.459,180.628 705.625,182.628 705,187.5C 699.286,192.239 696.619,190.905 697,183.5C 697.717,182.956 698.217,182.289 698.5,181.5 Z"/></g>
<g><path style="opacity:0.949" fill="#fefefe" d="M 402.5,144.5 C 405.561,144.444 407.728,145.778 409,148.5C 412.649,160.911 414.816,173.578 415.5,186.5C 415.284,192.654 413.95,198.487 411.5,204C 412.898,208.744 413.898,213.577 414.5,218.5C 414.291,219.086 413.957,219.586 413.5,220C 409.422,220.735 405.422,221.401 401.5,222C 399.076,217.321 397.076,212.488 395.5,207.5C 387.747,205.711 381.913,201.378 378,194.5C 373.976,182.907 370.81,171.073 368.5,159C 368.559,157.564 368.892,156.231 369.5,155C 380.644,151.561 391.644,148.061 402.5,144.5 Z M 383.5,180.5 C 392.072,182.764 396.072,188.431 395.5,197.5C 387.37,194.952 383.37,189.286 383.5,180.5 Z"/></g>
<g><path style="opacity:0.922" fill="#fefefe" d="M 968.5,155.5 C 992.191,155.355 1003.36,167.022 1002,190.5C 995.548,208.147 983.048,214.98 964.5,211C 949.703,205.252 943.203,194.418 945,178.5C 948.09,165.909 955.924,158.242 968.5,155.5 Z M 969.5,167.5 C 981.393,166.618 988.06,172.118 989.5,184C 987.177,197.323 979.51,202.323 966.5,199C 957.486,191.365 956.153,182.532 962.5,172.5C 964.618,170.358 966.952,168.692 969.5,167.5 Z"/></g>
<g><path style="opacity:0.919" fill="#fefefe" d="M 1094.5,155.5 C 1103.22,154.346 1110.39,157.013 1116,163.5C 1116.5,161.527 1116.66,159.527 1116.5,157.5C 1120.83,157.5 1125.17,157.5 1129.5,157.5C 1129.5,175.167 1129.5,192.833 1129.5,210.5C 1125.17,210.5 1120.83,210.5 1116.5,210.5C 1116.66,208.801 1116.49,207.134 1116,205.5C 1105.63,214.25 1094.8,214.75 1083.5,207C 1075.11,195.562 1073.27,183.062 1078,169.5C 1081.59,162.394 1087.09,157.727 1094.5,155.5 Z M 1098.5,167.5 C 1107.7,166.009 1113.54,169.676 1116,178.5C 1117.85,187.616 1115.02,194.782 1107.5,200C 1095.49,201.674 1089.16,196.341 1088.5,184C 1088.69,176.427 1092.03,170.927 1098.5,167.5 Z"/></g>
<g><path style="opacity:0.939" fill="#fefefe" d="M 1278.5,155.5 C 1287.14,154.324 1294.31,156.991 1300,163.5C 1300.5,161.527 1300.66,159.527 1300.5,157.5C 1304.5,157.5 1308.5,157.5 1312.5,157.5C 1312.5,175.167 1312.5,192.833 1312.5,210.5C 1308.5,210.5 1304.5,210.5 1300.5,210.5C 1300.66,208.473 1300.5,206.473 1300,204.5C 1297.25,208.567 1293.42,211.067 1288.5,212C 1268.78,213.278 1259.11,203.944 1259.5,184C 1258.79,169.526 1265.13,160.026 1278.5,155.5 Z M 1282.5,167.5 C 1292.04,166.216 1297.87,170.216 1300,179.5C 1301.71,195.461 1294.88,201.961 1279.5,199C 1271.8,191.108 1270.64,182.275 1276,172.5C 1277.8,170.174 1279.97,168.508 1282.5,167.5 Z"/></g>
<g><path style="opacity:0.922" fill="#fefefe" d="M 1429.5,155.5 C 1436.2,154.849 1442.53,156.015 1448.5,159C 1450.38,160.543 1451.88,162.376 1453,164.5C 1454.44,179.775 1454.94,195.109 1454.5,210.5C 1450.17,210.5 1445.83,210.5 1441.5,210.5C 1441.67,198.829 1441.5,187.162 1441,175.5C 1440.3,169.38 1436.8,166.38 1430.5,166.5C 1423.82,167.026 1419.32,170.36 1417,176.5C 1416.5,187.828 1416.33,199.162 1416.5,210.5C 1412.17,210.5 1407.83,210.5 1403.5,210.5C 1403.5,192.833 1403.5,175.167 1403.5,157.5C 1407.5,157.5 1411.5,157.5 1415.5,157.5C 1415.34,159.857 1415.5,162.19 1416,164.5C 1419.45,159.862 1423.95,156.862 1429.5,155.5 Z"/></g>
<g><path style="opacity:0.916" fill="#fefefe" d="M 1487.5,155.5 C 1509.8,153.801 1520.8,164.134 1520.5,186.5C 1506.5,186.333 1492.5,186.5 1478.5,187C 1481.47,198.821 1488.8,202.821 1500.5,199C 1504.01,196.66 1507.01,193.826 1509.5,190.5C 1513.44,191.954 1516.77,194.12 1519.5,197C 1512.47,209.467 1501.8,214.467 1487.5,212C 1470.12,207.11 1462.96,195.61 1466,177.5C 1468.68,165.653 1475.85,158.32 1487.5,155.5 Z M 1490.5,166.5 C 1495.18,166.338 1499.52,167.505 1503.5,170C 1505.2,172.235 1506.2,174.735 1506.5,177.5C 1497.49,177.666 1488.49,177.5 1479.5,177C 1481.44,171.554 1485.11,168.054 1490.5,166.5 Z"/></g>
<g><path style="opacity:0.907" fill="#fefefe" d="M 1552.5,155.5 C 1557.83,154.979 1562.83,155.979 1567.5,158.5C 1565.76,162.246 1563.92,165.912 1562,169.5C 1552.36,164.511 1546.69,167.511 1545,178.5C 1544.5,189.161 1544.33,199.828 1544.5,210.5C 1540.17,210.5 1535.83,210.5 1531.5,210.5C 1531.5,192.833 1531.5,175.167 1531.5,157.5C 1535.83,157.5 1540.17,157.5 1544.5,157.5C 1544.34,159.199 1544.51,160.866 1545,162.5C 1546.74,159.254 1549.24,156.921 1552.5,155.5 Z"/></g>
<g><path style="opacity:0.908" fill="#fefefe" d="M 1583.5,155.5 C 1590.68,154.646 1597.35,155.979 1603.5,159.5C 1605.03,161.193 1606.36,163.027 1607.5,165C 1604.5,166.833 1601.5,168.667 1598.5,170.5C 1595.42,166.459 1591.42,164.959 1586.5,166C 1581.63,168.477 1581.3,171.477 1585.5,175C 1591.5,177.667 1597.5,180.333 1603.5,183C 1610.01,189.251 1611.18,196.418 1607,204.5C 1602.13,210.43 1595.8,213.097 1588,212.5C 1578.24,213.037 1571.07,209.037 1566.5,200.5C 1569.83,198.5 1573.17,196.5 1576.5,194.5C 1580.66,201.72 1586.66,203.887 1594.5,201C 1597.1,198.127 1597.1,195.294 1594.5,192.5C 1588.12,189.429 1581.79,186.263 1575.5,183C 1568.55,176.593 1567.72,169.426 1573,161.5C 1576.1,158.648 1579.6,156.648 1583.5,155.5 Z"/></g>
<g><path style="opacity:0.922" fill="#fefefe" d="M 1740.5,155.5 C 1754.72,153.858 1763.89,159.858 1768,173.5C 1771.58,187.276 1768.41,199.109 1758.5,209C 1747.79,214.513 1737.95,213.347 1729,205.5C 1728.5,215.161 1728.33,224.828 1728.5,234.5C 1724.17,234.5 1719.83,234.5 1715.5,234.5C 1715.5,208.833 1715.5,183.167 1715.5,157.5C 1719.83,157.5 1724.17,157.5 1728.5,157.5C 1728.34,159.527 1728.5,161.527 1729,163.5C 1731.91,159.406 1735.75,156.74 1740.5,155.5 Z M 1737.5,167.5 C 1746.16,166.074 1751.99,169.407 1755,177.5C 1755.84,182.921 1755.51,188.254 1754,193.5C 1749.46,200.426 1743.3,202.26 1735.5,199C 1732.6,196.76 1730.43,193.927 1729,190.5C 1728.16,185.079 1728.49,179.746 1730,174.5C 1731.74,171.254 1734.24,168.921 1737.5,167.5 Z"/></g>
<g><path style="opacity:0.931" fill="#fefefe" d="M 357.5,156.5 C 359.722,156.178 361.556,156.845 363,158.5C 365.964,165.063 368.297,171.73 370,178.5C 363.235,183.529 355.735,186.363 347.5,187C 345.833,186.167 344.167,185.333 342.5,184.5C 340.724,186.447 338.724,186.78 336.5,185.5C 335.56,182.455 334.227,179.621 332.5,177C 333.952,175.155 335.785,173.655 338,172.5C 338.29,170.048 338.956,167.715 340,165.5C 345.816,162.343 351.649,159.343 357.5,156.5 Z"/></g>
<g><path style="opacity:0.91" fill="#fefefe" d="M 1686.5,157.5 C 1690.83,157.5 1695.17,157.5 1699.5,157.5C 1699.5,175.167 1699.5,192.833 1699.5,210.5C 1695.17,210.5 1690.83,210.5 1686.5,210.5C 1686.5,192.833 1686.5,175.167 1686.5,157.5 Z"/></g>
<g><path style="opacity:0.829" fill="#fefefe" d="M 482.5,162.5 C 483.686,164.194 483.519,165.861 482,167.5C 475.278,175.276 466.778,178.776 456.5,178C 454.207,181.855 451.041,183.355 447,182.5C 445.16,179.145 445.993,176.478 449.5,174.5C 449.833,175 450.167,175.5 450.5,176C 449.591,177.789 449.424,179.623 450,181.5C 452.389,176.446 455.555,171.946 459.5,168C 466.99,165.377 474.656,163.544 482.5,162.5 Z"/></g>
<g><path style="opacity:0.944" fill="#fefefe" d="M 178.5,167.5 C 187.989,170.276 197.155,173.943 206,178.5C 206.167,179.333 206.333,180.167 206.5,181C 203.394,189.648 199.894,198.148 196,206.5C 192.774,208.686 189.274,210.353 185.5,211.5C 185.07,214.276 183.904,216.61 182,218.5C 177.892,216.529 173.725,214.696 169.5,213C 168.941,212.275 168.608,211.442 168.5,210.5C 169.46,208.523 170.46,206.523 171.5,204.5C 167.995,200.792 166.828,196.459 168,191.5C 171.223,183.387 174.723,175.387 178.5,167.5 Z"/></g>
<g><path style="opacity:0.899" fill="#fefefe" d="M 440.5,173.5 C 441.833,173.5 443.167,173.5 444.5,173.5C 444.397,179.58 442.897,185.247 440,190.5C 435.717,194.905 431.55,199.405 427.5,204C 422.498,206.601 418.665,205.434 416,200.5C 415.448,197.581 416.115,194.914 418,192.5C 422.848,187.952 427.348,183.119 431.5,178C 434.823,176.96 437.823,175.46 440.5,173.5 Z"/></g>
<g><path style="opacity:0.821" fill="#fefefe" d="M 322.5,180.5 C 327.672,179.565 329.839,181.565 329,186.5C 325.294,189.608 321.127,191.442 316.5,192C 314.813,190.087 314.313,187.92 315,185.5C 317.74,184.101 320.24,182.434 322.5,180.5 Z"/></g>
<g><path style="opacity:0.896" fill="#fefefe" d="M 520.5,183.5 C 537.63,185.025 554.63,187.525 571.5,191C 584.659,195.498 594.826,203.664 602,215.5C 606.667,220.316 611.667,224.649 617,228.5C 618.01,233.956 619.344,239.29 621,244.5C 625.001,251.499 628.168,258.833 630.5,266.5C 629.167,274.167 629.167,281.833 630.5,289.5C 629.156,295.21 627.656,300.877 626,306.5C 616.236,315.215 605.236,321.882 593,326.5C 588.832,326.03 584.832,325.03 581,323.5C 580.625,318.79 579.958,314.123 579,309.5C 578.692,308.692 578.192,308.025 577.5,307.5C 575.799,310.035 573.633,312.035 571,313.5C 567.757,311.935 564.757,309.935 562,307.5C 559.736,309.164 557.403,309.497 555,308.5C 554.337,305.131 554.504,301.797 555.5,298.5C 549.558,289.42 546.058,279.42 545,268.5C 540.175,263.559 534.342,261.392 527.5,262C 522.786,267.204 517.12,271.204 510.5,274C 507.003,276.166 505.169,279.333 505,283.5C 502.136,285.68 499.136,287.68 496,289.5C 495.019,292.12 493.853,294.62 492.5,297C 495.539,300.431 495.039,303.264 491,305.5C 490.02,311.126 488.187,316.46 485.5,321.5C 487.02,325.932 488.686,330.265 490.5,334.5C 491.698,334.94 492.865,335.273 494,335.5C 495.635,349.907 499.801,363.574 506.5,376.5C 511.692,379.525 515.692,383.692 518.5,389C 520.808,390.867 523.475,391.867 526.5,392C 527.227,397.23 530.227,400.396 535.5,401.5C 536.952,404.282 536.619,406.782 534.5,409C 530.662,410.534 526.662,411.368 522.5,411.5C 497.355,409.007 474.021,401.34 452.5,388.5C 448.909,380.31 444.076,372.976 438,366.5C 435.333,361.167 432.667,355.833 430,350.5C 426.318,336.742 422.318,323.076 418,309.5C 416.056,301.757 416.39,294.09 419,286.5C 423.465,273.603 427.632,260.603 431.5,247.5C 436.348,241.145 440.181,234.145 443,226.5C 450.434,221.402 456.934,215.235 462.5,208C 473.091,199.535 484.758,192.869 497.5,188C 505.197,185.893 512.863,184.393 520.5,183.5 Z M 520.5,188.5 C 525.068,188.083 526.568,190.083 525,194.5C 522.137,195.877 520.637,198.21 520.5,201.5C 522.31,206.285 523.976,211.119 525.5,216C 525.035,219.002 524.201,221.835 523,224.5C 521.286,222.957 519.786,221.29 518.5,219.5C 518.868,218.09 519.701,217.09 521,216.5C 521.781,215.056 521.614,213.723 520.5,212.5C 517.579,211.593 514.579,211.26 511.5,211.5C 513.083,204.484 512.083,197.817 508.5,191.5C 508.709,190.914 509.043,190.414 509.5,190C 513.356,189.823 517.023,189.323 520.5,188.5 Z M 530.5,188.5 C 533.813,189.045 537.146,189.545 540.5,190C 537.097,190.1 533.93,190.934 531,192.5C 530.51,191.207 530.343,189.873 530.5,188.5 Z M 541.5,191.5 C 543.753,190.145 545.42,190.812 546.5,193.5C 545.248,198.537 544.248,198.203 543.5,192.5C 543.043,191.702 542.376,191.369 541.5,191.5 Z M 501.5,191.5 C 504.542,193.224 506.375,195.891 507,199.5C 507.913,203.362 507.58,207.028 506,210.5C 501.833,207 497.667,203.5 493.5,200C 491.1,199.814 488.766,199.314 486.5,198.5C 491.21,195.309 496.21,192.975 501.5,191.5 Z M 551.5,191.5 C 557.696,192.672 563.863,194.005 570,195.5C 570.667,197.167 570.667,198.833 570,200.5C 568.497,203.876 566.997,207.209 565.5,210.5C 560.483,205.648 555.316,200.982 550,196.5C 549.387,194.505 549.887,192.838 551.5,191.5 Z M 574.5,197.5 C 577.588,196.888 579.921,198.221 581.5,201.5C 581.167,201.833 580.833,202.167 580.5,202.5C 579.089,200.086 577.089,198.419 574.5,197.5 Z M 479.5,201.5 C 482.022,201.128 484.022,201.961 485.5,204C 483.669,210.432 479.336,213.765 472.5,214C 469.5,214.667 466.5,214.667 463.5,214C 468.721,209.572 474.055,205.405 479.5,201.5 Z M 574.5,202.5 C 576.571,203.572 577.905,205.239 578.5,207.5C 572.245,220.101 568.745,233.434 568,247.5C 566.92,249.996 565.586,252.33 564,254.5C 563.64,245.031 562.64,235.697 561,226.5C 566.807,219.218 571.307,211.218 574.5,202.5 Z M 584.5,203.5 C 586.716,204.203 588.549,205.536 590,207.5C 593.5,211.833 597,216.167 600.5,220.5C 599.185,222.316 597.685,223.983 596,225.5C 595.667,227.5 595.333,229.5 595,231.5C 593.522,234.993 591.522,235.326 589,232.5C 587.438,229.8 587.271,226.966 588.5,224C 587.423,218.174 585.756,212.507 583.5,207C 583.989,205.862 584.322,204.695 584.5,203.5 Z M 549.5,204.5 C 553.696,206.776 557.362,209.776 560.5,213.5C 559.236,216.125 558.069,218.792 557,221.5C 553.955,216.077 551.455,210.411 549.5,204.5 Z M 491.5,205.5 C 493.722,207.398 496.055,209.231 498.5,211C 491.754,214.313 489.421,212.48 491.5,205.5 Z M 579.5,213.5 C 581.614,214.36 582.78,216.027 583,218.5C 583.251,220.433 583.751,222.266 584.5,224C 582.602,229.592 583.602,234.592 587.5,239C 586.599,241.871 585.599,244.704 584.5,247.5C 581.465,248.665 578.465,248.498 575.5,247C 574.02,245.701 573.354,244.034 573.5,242C 575.055,232.389 577.055,222.889 579.5,213.5 Z M 456.5,220.5 C 457.634,222.966 457.801,225.633 457,228.5C 453.918,230.625 450.751,232.625 447.5,234.5C 446.479,233.998 446.312,233.332 447,232.5C 450.381,228.625 453.547,224.625 456.5,220.5 Z M 466.5,221.5 C 467.598,222.601 467.765,223.934 467,225.5C 465.489,224.436 465.323,223.103 466.5,221.5 Z M 511.5,222.5 C 515.896,223.54 519.563,225.873 522.5,229.5C 519.415,234 516.582,238.667 514,243.5C 510.363,241.799 506.53,240.799 502.5,240.5C 502.1,232.645 505.1,226.645 511.5,222.5 Z M 528.5,222.5 C 530.085,223.002 530.585,224.002 530,225.5C 528.961,224.756 528.461,223.756 528.5,222.5 Z M 609.5,228.5 C 607.176,227.67 605.176,226.337 603.5,224.5C 606.668,223.618 608.668,224.951 609.5,228.5 Z M 497.5,228.5 C 498.88,228.962 499.547,229.962 499.5,231.5C 497.146,243.206 490.146,248.206 478.5,246.5C 480.92,242.162 482.92,237.662 484.5,233C 487.377,231.873 490.377,231.206 493.5,231C 494.858,230.066 496.192,229.232 497.5,228.5 Z M 600.5,228.5 C 602.998,229.912 605.664,231.079 608.5,232C 609.357,232.689 610.023,233.522 610.5,234.5C 603.112,245.059 600.612,256.726 603,269.5C 600.959,270.423 598.792,270.756 596.5,270.5C 595.544,264.681 593.378,259.347 590,254.5C 588.009,246.154 590.676,239.821 598,235.5C 598.744,233.1 599.577,230.767 600.5,228.5 Z M 462.5,229.5 C 468.234,229.36 473.734,230.36 479,232.5C 479.667,233.5 479.667,234.5 479,235.5C 476.774,239.518 474.941,243.685 473.5,248C 469.833,250 466.167,250 462.5,248C 462.798,241.936 462.798,235.769 462.5,229.5 Z M 528.5,229.5 C 532.224,229.05 534.391,230.717 535,234.5C 537.292,235.79 539.292,237.457 541,239.5C 542.076,245.804 542.909,252.138 543.5,258.5C 543.192,259.308 542.692,259.975 542,260.5C 537.377,257.819 532.543,256.486 527.5,256.5C 525.565,252.723 523.398,249.057 521,245.5C 520.333,244.167 520.333,242.833 521,241.5C 523.761,237.64 526.261,233.64 528.5,229.5 Z M 457.5,231.5 C 458.711,237.023 458.711,242.69 457.5,248.5C 453.855,247.348 450.188,246.182 446.5,245C 444.005,244.843 441.672,244.676 439.5,244.5C 440.803,242.032 442.303,239.699 444,237.5C 445.388,238.554 446.888,238.72 448.5,238C 451.961,236.357 454.961,234.19 457.5,231.5 Z M 613.5,236.5 C 614.809,237.624 615.475,239.124 615.5,241C 614.767,250.482 613.267,259.982 611,269.5C 609.989,270.337 608.822,270.67 607.5,270.5C 607.213,262.114 607.713,253.781 609,245.5C 609.986,242.194 611.486,239.194 613.5,236.5 Z M 501.5,243.5 C 508.454,245.393 514.62,248.727 520,253.5C 522.223,257.388 521.723,260.888 518.5,264C 514.167,266.167 509.833,268.333 505.5,270.5C 502.641,265.474 498.641,261.641 493.5,259C 497.359,254.45 500.025,249.283 501.5,243.5 Z M 444.5,248.5 C 448.994,250.912 453.661,253.079 458.5,255C 459.517,256.049 459.684,257.216 459,258.5C 452.195,261.86 445.028,263.693 437.5,264C 434.809,261.689 433.643,258.856 434,255.5C 436.998,252.262 440.498,249.929 444.5,248.5 Z M 546.5,248.5 C 549.668,253.181 552.668,258.015 555.5,263C 552.904,263.458 550.737,262.625 549,260.5C 547.217,256.702 546.384,252.702 546.5,248.5 Z M 493.5,249.5 C 493.182,252.305 492.015,254.639 490,256.5C 487.725,254.63 485.225,253.13 482.5,252C 486.285,251.593 489.952,250.759 493.5,249.5 Z M 618.5,249.5 C 620.037,252.9 621.87,256.233 624,259.5C 625.154,263.104 625.987,266.771 626.5,270.5C 622.967,270.495 619.8,269.495 617,267.5C 617.382,261.525 617.882,255.525 618.5,249.5 Z M 571.5,250.5 C 575.719,249.979 579.386,251.146 582.5,254C 581.25,258.241 579.75,262.408 578,266.5C 574.961,269.103 571.461,270.769 567.5,271.5C 566.5,271.167 565.833,270.5 565.5,269.5C 567.36,266.616 567.694,263.616 566.5,260.5C 567.65,256.866 569.317,253.533 571.5,250.5 Z M 464.5,252.5 C 468.416,253.425 468.416,254.425 464.5,255.5C 463.438,254.575 463.438,253.575 464.5,252.5 Z M 477.5,257.5 C 484.686,260.528 485.186,264.194 479,268.5C 472.4,265.56 471.9,261.894 477.5,257.5 Z M 586.5,258.5 C 588.915,261.34 590.248,264.673 590.5,268.5C 587.813,268.664 585.146,268.497 582.5,268C 583.739,264.781 585.072,261.614 586.5,258.5 Z M 431.5,263.5 C 435.423,266.088 435.09,268.422 430.5,270.5C 429.973,268.207 430.306,265.873 431.5,263.5 Z M 492.5,264.5 C 500.324,267.804 502.824,273.471 500,281.5C 497.808,280.601 495.642,279.601 493.5,278.5C 493.172,273.824 492.839,269.157 492.5,264.5 Z M 549.5,266.5 C 558.752,266.403 562.419,270.736 560.5,279.5C 554.356,277.349 550.689,273.016 549.5,266.5 Z M 575.5,272.5 C 580.833,272.5 586.167,272.5 591.5,272.5C 590.654,277.895 589.488,283.228 588,288.5C 587.32,290.513 585.987,291.846 584,292.5C 576.972,290.494 569.972,288.494 563,286.5C 563.038,282.548 564.205,278.881 566.5,275.5C 569.662,274.635 572.662,273.635 575.5,272.5 Z M 617.5,273.5 C 620.206,273.575 622.873,273.908 625.5,274.5C 626.474,280.472 626.641,286.472 626,292.5C 625.692,293.308 625.192,293.975 624.5,294.5C 622.321,287.449 619.987,280.449 617.5,273.5 Z M 596.5,274.5 C 598.5,274.5 600.5,274.5 602.5,274.5C 602.952,280.646 601.118,285.979 597,290.5C 594.877,290.034 593.377,288.867 592.5,287C 593.649,282.727 594.983,278.56 596.5,274.5 Z M 608.5,274.5 C 609.239,274.369 609.906,274.536 610.5,275C 606.974,279.615 606.307,279.448 608.5,274.5 Z M 612.5,277.5 C 613.497,277.47 614.164,277.97 614.5,279C 616.757,287.195 619.09,295.361 621.5,303.5C 620.96,304.748 620.293,305.915 619.5,307C 613.135,310.514 606.802,314.014 600.5,317.5C 600.164,302.84 604.164,289.507 612.5,277.5 Z M 551.5,278.5 C 553.791,279.542 554.791,281.042 554.5,283C 553.551,283.617 552.718,283.451 552,282.5C 551.51,281.207 551.343,279.873 551.5,278.5 Z M 491.5,283.5 C 493.103,283.312 494.437,283.812 495.5,285C 493.714,285.785 492.214,286.951 491,288.5C 490.616,286.803 490.782,285.137 491.5,283.5 Z M 555.5,285.5 C 559.079,285.766 559.413,287.099 556.5,289.5C 555.571,288.311 555.238,286.978 555.5,285.5 Z M 561.5,291.5 C 567.588,291.883 573.421,293.217 579,295.5C 577.723,300.193 575.223,304.36 571.5,308C 569.061,307.6 567.061,306.267 565.5,304C 564.06,299.846 562.726,295.68 561.5,291.5 Z M 591.5,292.5 C 593.028,292.517 593.528,293.184 593,294.5C 589.667,297.167 586.333,299.833 583,302.5C 581.385,301.344 581.385,300.011 583,298.5C 585.988,296.601 588.821,294.601 591.5,292.5 Z M 596.5,295.5 C 597.289,295.783 597.956,296.283 598.5,297C 596.938,305.095 595.605,313.262 594.5,321.5C 591.119,321.54 587.786,321.207 584.5,320.5C 584.049,315.771 583.549,311.105 583,306.5C 587.979,303.348 592.479,299.681 596.5,295.5 Z M 480.5,326.5 C 481.5,326.5 482.5,326.5 483.5,326.5C 484.348,330.892 485.348,335.225 486.5,339.5C 484.61,339.297 483.11,339.963 482,341.5C 479.688,338.354 477.188,335.354 474.5,332.5C 476.533,330.493 478.533,328.493 480.5,326.5 Z M 428.5,327.5 C 431.226,330.388 434.393,332.721 438,334.5C 437.998,338.86 437.498,343.193 436.5,347.5C 435.5,347.5 434.5,347.5 433.5,347.5C 431.581,340.91 429.915,334.244 428.5,327.5 Z M 465.5,335.5 C 466.376,335.369 467.043,335.702 467.5,336.5C 466.748,340.095 465.414,343.428 463.5,346.5C 460.683,344.183 458.016,341.683 455.5,339C 459.109,338.299 462.442,337.132 465.5,335.5 Z M 471.5,336.5 C 474.369,337.607 476.369,339.607 477.5,342.5C 475.445,344.555 473.779,346.888 472.5,349.5C 473.894,350.687 473.727,351.354 472,351.5C 470.274,351.054 468.774,350.221 467.5,349C 469.736,345.124 471.07,340.958 471.5,336.5 Z M 443.5,337.5 C 445.806,337.993 448.139,338.326 450.5,338.5C 449.037,342.105 447.537,345.771 446,349.5C 442.353,346.171 441.52,342.171 443.5,337.5 Z M 453.5,343.5 C 463.666,352.165 462.666,354.499 450.5,350.5C 452.082,348.423 453.082,346.09 453.5,343.5 Z M 487.5,343.5 C 490.966,350.042 493.966,356.875 496.5,364C 492.511,367.995 487.844,370.328 482.5,371C 481.422,370.326 480.755,369.326 480.5,368C 480.918,365.237 481.584,362.57 482.5,360C 482.207,356.906 480.541,355.406 477.5,355.5C 477.523,353.073 478.023,350.74 479,348.5C 481.983,347.002 484.816,345.335 487.5,343.5 Z M 439.5,350.5 C 446.477,352.106 447.143,355.44 441.5,360.5C 440.914,360.291 440.414,359.957 440,359.5C 439.502,356.518 439.335,353.518 439.5,350.5 Z M 449.5,353.5 C 451.807,354.653 454.14,355.82 456.5,357C 457.894,357.956 458.561,359.289 458.5,361C 455.632,365.229 453.132,369.729 451,374.5C 448.819,371.656 446.653,368.822 444.5,366C 446.595,361.981 448.261,357.814 449.5,353.5 Z M 464.5,353.5 C 473.355,355.117 474.355,358.617 467.5,364C 465.866,364.494 464.199,364.66 462.5,364.5C 462.417,360.665 463.083,356.998 464.5,353.5 Z M 476.5,360.5 C 478.124,363.851 477.291,366.518 474,368.5C 472.775,368.138 471.609,367.638 470.5,367C 473.303,365.549 475.303,363.382 476.5,360.5 Z M 497.5,369.5 C 503.487,376.915 501.82,378.581 492.5,374.5C 493.882,372.451 495.548,370.785 497.5,369.5 Z M 512.5,401.5 C 518.172,401.867 523.839,402.367 529.5,403C 530.167,403.667 530.833,404.333 531.5,405C 524.031,407.465 516.365,407.465 508.5,405C 509.731,403.595 511.064,402.429 512.5,401.5 Z"/></g>
<g><path style="opacity:0.898" fill="#fefefe" d="M 304.5,186.5 C 310.851,187.36 313.685,191.027 313,197.5C 307.167,202.667 301.333,207.833 295.5,213C 291.1,214.171 286.766,215.338 282.5,216.5C 282.67,215.178 282.337,214.011 281.5,213C 283.736,209.855 285.236,206.355 286,202.5C 292.064,196.928 298.231,191.595 304.5,186.5 Z"/></g>
<g><path style="opacity:0.808" fill="#fefefe" d="M 358.5,191.5 C 359.833,191.5 361.167,191.5 362.5,191.5C 362.5,194.167 362.5,196.833 362.5,199.5C 366.295,200.041 368.295,198.375 368.5,194.5C 370.311,198.911 373.645,201.078 378.5,201C 379.944,202.763 380.944,204.763 381.5,207C 389.231,206.795 392.231,210.461 390.5,218C 385.552,219.717 382.885,223.217 382.5,228.5C 379.897,229.562 377.23,229.728 374.5,229C 373.383,225.972 371.716,223.305 369.5,221C 363.96,221.97 361.293,219.47 361.5,213.5C 352.921,214.105 349.754,210.439 352,202.5C 356.668,200.343 358.835,196.676 358.5,191.5 Z M 374.5,201.5 C 377.242,202.558 377.909,204.391 376.5,207C 375.207,207.49 373.873,207.657 372.5,207.5C 372.253,205.142 372.919,203.142 374.5,201.5 Z M 366.5,203.5 C 367.94,205.42 367.607,207.087 365.5,208.5C 364.316,206.533 364.649,204.866 366.5,203.5 Z M 356.5,204.5 C 358.484,204.484 359.484,205.484 359.5,207.5C 357.584,211.327 355.917,211.327 354.5,207.5C 354.942,206.261 355.609,205.261 356.5,204.5 Z M 383.5,210.5 C 386.921,210.238 387.921,211.572 386.5,214.5C 385.311,215.429 383.978,215.762 382.5,215.5C 382.366,213.708 382.699,212.042 383.5,210.5 Z M 376.5,211.5 C 378.58,213.17 378.247,214.836 375.5,216.5C 374.348,214.603 374.681,212.936 376.5,211.5 Z M 366.5,212.5 C 369.79,213.656 370.29,215.656 368,218.5C 364.238,217.077 363.738,215.077 366.5,212.5 Z M 375.5,220.5 C 376.833,220.5 378.167,220.5 379.5,220.5C 379.848,228.539 378.181,229.205 374.5,222.5C 374.863,221.817 375.196,221.15 375.5,220.5 Z"/></g>
<g><path style="opacity:0.96" fill="#fefefe" d="M 328.5,193.5 C 338.358,191.173 344.524,194.839 347,204.5C 347.381,212.788 349.047,220.788 352,228.5C 352.613,252.886 340.78,263.719 316.5,261C 298.878,253.153 293.045,239.986 299,221.5C 302.326,213.507 308.159,208.341 316.5,206C 320.03,201.305 324.03,197.138 328.5,193.5 Z M 332.5,199.5 C 333.833,199.5 335.167,199.5 336.5,199.5C 336.5,201.167 336.5,202.833 336.5,204.5C 335.167,204.5 333.833,204.5 332.5,204.5C 332.5,202.833 332.5,201.167 332.5,199.5 Z"/></g>
<g><path style="opacity:0.844" fill="#fefefe" d="M 705.5,196.5 C 707.167,196.5 708.833,196.5 710.5,196.5C 712.097,207.059 714.097,217.559 716.5,228C 715.944,231.439 714.111,232.272 711,230.5C 708.158,220.26 705.324,210.094 702.5,200C 703.071,198.401 704.071,197.234 705.5,196.5 Z"/></g>
<g><path style="opacity:0.925" fill="#fefefe" d="M 162.5,217.5 C 170.064,218.391 177.397,220.224 184.5,223C 186.833,224.333 187.833,226.333 187.5,229C 187.077,232.269 186.244,235.436 185,238.5C 176.912,239.648 168.746,239.815 160.5,239C 159.106,238.044 158.439,236.711 158.5,235C 159.164,230.856 159.664,226.689 160,222.5C 160.366,220.548 161.199,218.882 162.5,217.5 Z"/></g>
<g><path style="opacity:0.934" fill="#fefefe" d="M 272.5,218.5 C 278.858,217.029 282.192,219.529 282.5,226C 280.078,239.51 273.745,250.843 263.5,260C 258.785,263.399 253.785,264.066 248.5,262C 246.607,259.083 246.107,255.916 247,252.5C 250.477,237.216 258.977,225.883 272.5,218.5 Z"/></g>
<g><path style="opacity:0.853" fill="#fefefe" d="M 380.5,252.5 C 385.129,243.14 389.296,233.473 393,223.5C 398.67,220.154 400.67,221.82 399,228.5C 394.813,237.873 391.48,247.54 389,257.5C 386.502,258.598 384.002,258.432 381.5,257C 380.62,255.644 380.286,254.144 380.5,252.5 Z"/></g>
<g><path style="opacity:0.914" fill="#fefefe" d="M 380.5,252.5 C 374.53,255.657 368.197,256.824 361.5,256C 360.064,249.39 358.731,242.724 357.5,236C 357.862,234.775 358.362,233.609 359,232.5C 362.933,230.013 367.1,229.347 371.5,230.5C 376.18,237.186 379.18,244.52 380.5,252.5 Z"/></g>
<g><path style="opacity:0.971" fill="#fefffe" d="M 1466.5,238.5 C 1470.5,238.5 1474.5,238.5 1478.5,238.5C 1478.5,269.167 1478.5,299.833 1478.5,330.5C 1474.5,330.5 1470.5,330.5 1466.5,330.5C 1466.5,299.833 1466.5,269.167 1466.5,238.5 Z"/></g>
<g><path style="opacity:0.897" fill="#fefffe" d="M 1494.5,238.5 C 1498.83,238.5 1503.17,238.5 1507.5,238.5C 1507.5,269.167 1507.5,299.833 1507.5,330.5C 1503.17,330.5 1498.83,330.5 1494.5,330.5C 1494.5,299.833 1494.5,269.167 1494.5,238.5 Z"/></g>
<g><path style="opacity:0.921" fill="#fefefe" d="M 1050.5,241.5 C 1054.83,241.5 1059.17,241.5 1063.5,241.5C 1063.5,270.833 1063.5,300.167 1063.5,329.5C 1059.17,329.5 1054.83,329.5 1050.5,329.5C 1050.5,300.167 1050.5,270.833 1050.5,241.5 Z"/></g>
<g><path style="opacity:0.87" fill="#fefefe" d="M 291.5,242.5 C 295.7,242.914 296.533,244.914 294,248.5C 289.219,251.282 285.886,255.282 284,260.5C 280.958,263.711 277.791,266.711 274.5,269.5C 272.802,270.681 271.135,270.681 269.5,269.5C 268.52,268.019 267.353,266.685 266,265.5C 265.333,263.833 265.333,262.167 266,260.5C 274.091,253.876 282.591,247.876 291.5,242.5 Z"/></g>
<g><path style="opacity:0.89" fill="#fefefe" d="M 1622.5,242.5 C 1631.78,241.376 1635.28,245.376 1633,254.5C 1628.33,261.167 1623.67,261.167 1619,254.5C 1617.59,249.643 1618.76,245.643 1622.5,242.5 Z"/></g>
<g><path style="opacity:0.939" fill="#fefefe" d="M 154.5,243.5 C 163.873,243.248 173.207,243.582 182.5,244.5C 182.691,254.329 181.524,263.996 179,273.5C 177.185,277.796 174.852,281.796 172,285.5C 172.717,293.46 169.384,296.127 162,293.5C 162.064,287.049 159.73,281.715 155,277.5C 153.438,275.043 152.438,272.376 152,269.5C 151.953,260.728 152.786,252.062 154.5,243.5 Z M 158.5,263.5 C 160.911,263.137 162.411,264.137 163,266.5C 163.903,270.033 163.57,273.367 162,276.5C 159.139,272.706 157.973,268.373 158.5,263.5 Z"/></g>
<g><path style="opacity:0.887" fill="#fefefe" d="M 1228.5,244.5 C 1236.6,243.772 1240.1,247.438 1239,255.5C 1236.56,260.224 1232.73,261.724 1227.5,260C 1222.04,254.368 1222.38,249.201 1228.5,244.5 Z"/></g>
<g><path style="opacity:0.937" fill="#fefefe" d="M 1348.5,244.5 C 1359.51,244.333 1370.51,244.5 1381.5,245C 1391.48,249.272 1396.48,256.938 1396.5,268C 1396.18,275.642 1393.51,282.309 1388.5,288C 1379.96,291.941 1370.96,293.441 1361.5,292.5C 1361.5,305.167 1361.5,317.833 1361.5,330.5C 1357.17,330.5 1352.83,330.5 1348.5,330.5C 1348.5,301.833 1348.5,273.167 1348.5,244.5 Z M 1362.5,256.5 C 1367.57,256.925 1372.57,257.759 1377.5,259C 1383.78,265.501 1383.78,271.834 1377.5,278C 1372.6,279.325 1367.6,279.825 1362.5,279.5C 1362.5,271.833 1362.5,264.167 1362.5,256.5 Z"/></g>
<g><path style="opacity:0.94" fill="#fefefe" d="M 991.5,248.5 C 1003.55,248.109 1015.55,248.609 1027.5,250C 1038.19,255.56 1042.36,264.394 1040,276.5C 1038.47,286.027 1032.97,291.527 1023.5,293C 1017.18,293.5 1010.84,293.666 1004.5,293.5C 1004.5,305.5 1004.5,317.5 1004.5,329.5C 1000.17,329.5 995.833,329.5 991.5,329.5C 991.5,302.5 991.5,275.5 991.5,248.5 Z M 1005.5,260.5 C 1011.83,260.067 1017.83,261.234 1023.5,264C 1027.91,270.07 1027.24,275.404 1021.5,280C 1016.26,281.339 1010.93,281.839 1005.5,281.5C 1005.5,274.5 1005.5,267.5 1005.5,260.5 Z"/></g>
<g><path style="opacity:0.967" fill="#fefefe" d="M 1589.5,253.5 C 1593.5,253.5 1597.5,253.5 1601.5,253.5C 1601.5,260.5 1601.5,267.5 1601.5,274.5C 1604.5,274.5 1607.5,274.5 1610.5,274.5C 1610.5,278.5 1610.5,282.5 1610.5,286.5C 1607.5,286.5 1604.5,286.5 1601.5,286.5C 1601.5,301.167 1601.5,315.833 1601.5,330.5C 1597.5,330.5 1593.5,330.5 1589.5,330.5C 1589.5,315.833 1589.5,301.167 1589.5,286.5C 1586.5,286.5 1583.5,286.5 1580.5,286.5C 1580.5,282.5 1580.5,278.5 1580.5,274.5C 1583.5,274.5 1586.5,274.5 1589.5,274.5C 1589.5,267.5 1589.5,260.5 1589.5,253.5 Z"/></g>
<g><path style="opacity:0.926" fill="#fefefe" d="M 1193.5,254.5 C 1197.83,254.5 1202.17,254.5 1206.5,254.5C 1206.5,261.5 1206.5,268.5 1206.5,275.5C 1209.5,275.5 1212.5,275.5 1215.5,275.5C 1215.5,279.167 1215.5,282.833 1215.5,286.5C 1212.5,286.5 1209.5,286.5 1206.5,286.5C 1206.5,300.833 1206.5,315.167 1206.5,329.5C 1202.17,329.5 1197.83,329.5 1193.5,329.5C 1193.5,315.167 1193.5,300.833 1193.5,286.5C 1190.5,286.5 1187.5,286.5 1184.5,286.5C 1184.5,282.833 1184.5,279.167 1184.5,275.5C 1187.5,275.5 1190.5,275.5 1193.5,275.5C 1193.5,268.5 1193.5,261.5 1193.5,254.5 Z"/></g>
<g><path style="opacity:0.975" fill="#fefefe" d="M 296.5,259.5 C 302.151,258.93 307.484,259.93 312.5,262.5C 313.807,267.14 316.807,270.14 321.5,271.5C 322.584,272.665 323.417,273.998 324,275.5C 336.102,286.357 347.769,297.69 359,309.5C 359.36,311.608 360.027,313.608 361,315.5C 363.754,317.127 366.588,318.627 369.5,320C 375.667,326.167 381.833,332.333 388,338.5C 390.637,342.072 392.303,346.072 393,350.5C 393.737,357.878 394.737,365.211 396,372.5C 399.158,375.08 402.492,377.413 406,379.5C 406.931,381.459 407.764,383.459 408.5,385.5C 405.414,392.254 400.414,396.921 393.5,399.5C 389.513,395.084 385.18,390.917 380.5,387C 373.53,385.899 366.53,384.899 359.5,384C 355.951,383.226 352.618,381.893 349.5,380C 339.893,372.563 331.893,363.73 325.5,353.5C 321.23,351.449 317.397,348.783 314,345.5C 313.138,343.913 312.471,342.246 312,340.5C 305.974,338.474 301.974,334.474 300,328.5C 294.333,326.833 290.667,323.167 289,317.5C 284.434,316.601 281.434,313.934 280,309.5C 268.821,302.503 266.488,293.169 273,281.5C 279.142,272.186 286.975,264.853 296.5,259.5 Z"/></g>
<g><path style="opacity:0.951" fill="#fefefe" d="M 356.5,260.5 C 367.551,260.748 378.551,261.415 389.5,262.5C 389.833,264.667 390.167,266.833 390.5,269C 389.884,277.826 389.384,286.66 389,295.5C 387.06,298.395 384.56,300.728 381.5,302.5C 380.513,305.768 380.18,309.102 380.5,312.5C 375.156,312.666 369.823,312.499 364.5,312C 364,311.5 363.5,311 363,310.5C 364.03,304.307 361.696,299.974 356,297.5C 355.333,296.167 354.667,294.833 354,293.5C 354.129,282.427 354.963,271.427 356.5,260.5 Z"/></g>
<g><path style="opacity:0.88" fill="#fefefe" d="M 342.5,263.5 C 344.167,263.5 345.833,263.5 347.5,263.5C 349.424,271.042 349.924,278.709 349,286.5C 348.311,287.357 347.478,288.023 346.5,288.5C 343.488,284.989 340.322,281.656 337,278.5C 335.085,274.393 334.585,270.226 335.5,266C 338.004,265.302 340.337,264.469 342.5,263.5 Z"/></g>
<g><path style="opacity:0.959" fill="#fefefe" d="M 232.5,265.5 C 242.666,266.904 252.333,270.071 261.5,275C 263.347,277.579 263.847,280.412 263,283.5C 257.221,299.724 250.887,315.724 244,331.5C 241.007,335.157 237.34,337.823 233,339.5C 225.395,354.377 218.061,369.377 211,384.5C 207.011,385.81 203.177,385.31 199.5,383C 198.57,381.806 197.903,380.473 197.5,379C 202.641,362.577 207.974,346.244 213.5,330C 210.71,325.936 209.877,321.436 211,316.5C 216.421,300.565 222.421,284.898 229,269.5C 230.376,268.295 231.542,266.962 232.5,265.5 Z"/></g>
<g><path style="opacity:0.928" fill="#fefefe" d="M 1419.5,272.5 C 1440.99,271.073 1452.65,281.073 1454.5,302.5C 1452.29,325.219 1439.96,335.052 1417.5,332C 1401.57,323.969 1395.4,311.135 1399,293.5C 1402.35,282.984 1409.18,275.984 1419.5,272.5 Z M 1423.5,284.5 C 1434.67,285.505 1440.67,291.671 1441.5,303C 1439.99,316.73 1432.66,322.064 1419.5,319C 1410.68,310.736 1409.18,301.236 1415,290.5C 1417.67,288.098 1420.5,286.098 1423.5,284.5 Z"/></g>
<g><path style="opacity:0.928" fill="#fefefe" d="M 1665.5,272.5 C 1690.55,272.05 1702.05,284.383 1700,309.5C 1694.05,329.139 1681.21,336.305 1661.5,331C 1647.25,322.989 1641.75,310.822 1645,294.5C 1648.26,283.744 1655.09,276.411 1665.5,272.5 Z M 1670.5,284.5 C 1680.91,285.914 1686.58,291.914 1687.5,302.5C 1686.23,317.648 1678.56,322.814 1664.5,318C 1656.23,309.167 1655.4,299.667 1662,289.5C 1664.68,287.415 1667.52,285.748 1670.5,284.5 Z"/></g>
<g><path style="opacity:0.922" fill="#fefefe" d="M 1735.5,272.5 C 1742.58,271.643 1749.25,272.809 1755.5,276C 1757.62,277.731 1759.12,279.898 1760,282.5C 1761.42,298.451 1761.92,314.451 1761.5,330.5C 1757.17,330.5 1752.83,330.5 1748.5,330.5C 1748.67,317.829 1748.5,305.162 1748,292.5C 1747.03,286.861 1743.7,284.195 1738,284.5C 1731.05,284.47 1726.72,287.804 1725,294.5C 1724.5,306.495 1724.33,318.495 1724.5,330.5C 1720.17,330.5 1715.83,330.5 1711.5,330.5C 1711.5,311.833 1711.5,293.167 1711.5,274.5C 1715.5,274.5 1719.5,274.5 1723.5,274.5C 1723.34,276.857 1723.5,279.19 1724,281.5C 1727.04,277.406 1730.88,274.406 1735.5,272.5 Z"/></g>
<g><path style="opacity:0.932" fill="#fefefe" d="M 1092.5,273.5 C 1101.4,271.738 1108.9,274.071 1115,280.5C 1115.49,278.866 1115.66,277.199 1115.5,275.5C 1119.83,275.5 1124.17,275.5 1128.5,275.5C 1128.5,293.5 1128.5,311.5 1128.5,329.5C 1124.17,329.5 1119.83,329.5 1115.5,329.5C 1115.66,328.127 1115.49,326.793 1115,325.5C 1108.52,331.114 1101.02,332.948 1092.5,331C 1085.43,328.928 1080.59,324.428 1078,317.5C 1073.44,303.913 1075.11,291.247 1083,279.5C 1085.84,276.837 1089.01,274.837 1092.5,273.5 Z M 1097.5,285.5 C 1109.49,284.318 1115.83,289.818 1116.5,302C 1115.99,316.203 1108.99,321.536 1095.5,318C 1087.87,309.711 1086.7,300.545 1092,290.5C 1093.73,288.598 1095.56,286.931 1097.5,285.5 Z"/></g>
<g><path style="opacity:0.914" fill="#fefefe" d="M 1153.5,273.5 C 1160.91,272.621 1167.91,273.788 1174.5,277C 1176.01,278.351 1177.01,280.018 1177.5,282C 1175.33,284.66 1172.66,286.827 1169.5,288.5C 1165.72,283.595 1161.06,282.429 1155.5,285C 1152.63,288.051 1152.96,290.718 1156.5,293C 1162.25,295.474 1167.92,298.14 1173.5,301C 1182.82,310.046 1182.82,319.046 1173.5,328C 1163.83,332.667 1154.17,332.667 1144.5,328C 1141.72,325.888 1139.72,323.221 1138.5,320C 1141.05,317.373 1144.05,315.207 1147.5,313.5C 1149.74,316.909 1152.74,319.409 1156.5,321C 1163.81,322.463 1167.31,319.63 1167,312.5C 1161.22,308.695 1155.06,305.528 1148.5,303C 1138.74,295.096 1138.08,286.43 1146.5,277C 1148.93,275.787 1151.26,274.621 1153.5,273.5 Z"/></g>
<g><path style="opacity:0.914" fill="#fefefe" d="M 1271.5,273.5 C 1278.96,272.804 1286.13,273.804 1293,276.5C 1293.83,281.533 1293.66,286.533 1292.5,291.5C 1283.58,282.36 1274.75,282.36 1266,291.5C 1262.09,300.192 1262.93,308.358 1268.5,316C 1277.65,321.465 1285.82,320.299 1293,312.5C 1293.83,317.864 1293.66,323.198 1292.5,328.5C 1277.93,334.672 1265.43,332.005 1255,320.5C 1249,308.5 1249,296.5 1255,284.5C 1259.36,278.92 1264.86,275.253 1271.5,273.5 Z"/></g>
<g><path style="opacity:0.95" fill="#fefefe" d="M 1522.5,274.5 C 1526.5,274.5 1530.5,274.5 1534.5,274.5C 1534.08,287.894 1534.58,301.227 1536,314.5C 1538.26,318.931 1541.93,320.931 1547,320.5C 1552.07,320.931 1555.74,318.931 1558,314.5C 1559.42,301.227 1559.92,287.894 1559.5,274.5C 1563.5,274.5 1567.5,274.5 1571.5,274.5C 1571.91,289.217 1571.41,303.884 1570,318.5C 1566.07,328.981 1558.4,333.981 1547,333.5C 1533.17,333.612 1525.17,326.946 1523,313.5C 1522.5,300.504 1522.33,287.504 1522.5,274.5 Z"/></g>
<g><path style="opacity:0.9" fill="#fefffe" d="M 1619.5,274.5 C 1623.83,274.5 1628.17,274.5 1632.5,274.5C 1632.5,293.167 1632.5,311.833 1632.5,330.5C 1628.17,330.5 1623.83,330.5 1619.5,330.5C 1619.5,311.833 1619.5,293.167 1619.5,274.5 Z"/></g>
<g><path style="opacity:0.919" fill="#fefefe" d="M 1225.5,275.5 C 1229.83,275.5 1234.17,275.5 1238.5,275.5C 1238.5,293.5 1238.5,311.5 1238.5,329.5C 1234.17,329.5 1229.83,329.5 1225.5,329.5C 1225.5,311.5 1225.5,293.5 1225.5,275.5 Z"/></g>
<g><path style="opacity:0.927" fill="#fefefe" d="M 847.5,277.5 C 870.151,280.317 879.651,292.983 876,315.5C 871.269,327.894 862.269,334.56 849,335.5C 827.704,332.197 818.704,319.864 822,298.5C 826.242,286.072 834.742,279.072 847.5,277.5 Z M 846.5,289.5 C 856.977,290.308 862.977,295.974 864.5,306.5C 862.182,320.375 854.515,325.209 841.5,321C 834.078,313.997 832.578,305.83 837,296.5C 839.529,293.115 842.696,290.782 846.5,289.5 Z"/></g>
<g><path style="opacity:0.945" fill="#fefefe" d="M 916.5,277.5 C 924.902,276.621 931.402,279.621 936,286.5C 937.452,301.762 937.952,317.095 937.5,332.5C 933.5,332.5 929.5,332.5 925.5,332.5C 925.87,320.12 925.37,307.786 924,295.5C 922.598,290.875 919.431,288.875 914.5,289.5C 908.43,289.28 904.263,291.947 902,297.5C 900.613,309.113 900.113,320.779 900.5,332.5C 896.5,332.5 892.5,332.5 888.5,332.5C 888.5,314.833 888.5,297.167 888.5,279.5C 892.5,279.5 896.5,279.5 900.5,279.5C 899.601,285.89 900.935,286.724 904.5,282C 908.301,279.584 912.301,278.084 916.5,277.5 Z"/></g>
<g><path style="opacity:0.944" fill="#fefefe" d="M 720.5,290.5 C 728.174,290.334 735.841,290.5 743.5,291C 745.888,291.303 748.055,292.137 750,293.5C 749.206,304.264 747.54,314.931 745,325.5C 740.865,329.191 736.031,330.358 730.5,329C 727.829,327.75 725.663,325.917 724,323.5C 721.898,312.615 720.731,301.615 720.5,290.5 Z"/></g>
<g><path style="opacity:0.922" fill="#fefefe" d="M 152.5,291.5 C 165.351,294.301 173.685,302.134 177.5,315C 169.829,321.676 160.829,324.842 150.5,324.5C 149.997,319.485 149.33,314.485 148.5,309.5C 148.44,305.014 149.773,301.014 152.5,297.5C 150.703,296.305 149.703,294.638 149.5,292.5C 150.791,292.737 151.791,292.404 152.5,291.5 Z"/></g>
<g><path style="opacity:0.916" fill="#fefefe" d="M 266.5,305.5 C 274.039,309.199 278.206,315.199 279,323.5C 280.333,324.833 281.667,324.833 283,323.5C 283.065,326.198 281.898,328.364 279.5,330C 270.533,332.047 262.366,330.214 255,324.5C 255.427,320.619 256.76,316.953 259,313.5C 261.705,310.964 264.205,308.297 266.5,305.5 Z"/></g>
<g><path style="opacity:0.9" fill="#fefefe" d="M 154.5,327.5 C 157.809,328.242 160.643,329.909 163,332.5C 175.71,346.632 181.377,363.299 180,382.5C 183.279,385.779 186.613,389.113 190,392.5C 190.956,400.951 187.456,403.451 179.5,400C 176.404,397.971 174.738,395.138 174.5,391.5C 177.981,392.491 181.147,394.158 184,396.5C 185.28,396.387 186.113,395.72 186.5,394.5C 182.243,389.041 176.91,385.041 170.5,382.5C 161.85,372.519 157.017,360.853 156,347.5C 154.267,340.823 153.767,334.157 154.5,327.5 Z"/></g>
<g><path style="opacity:0.896" fill="#fefefe" d="M 732.5,330.5 C 738.303,329.913 743.803,330.58 749,332.5C 749.921,341.409 748.254,349.743 744,357.5C 743.178,360.117 742.678,362.784 742.5,365.5C 740.326,365.92 738.326,365.92 736.5,365.5C 735.787,363.224 735.287,360.891 735,358.5C 729.587,352.847 727.587,346.18 729,338.5C 727.833,340.167 726.667,341.833 725.5,343.5C 722.752,344.644 720.919,343.644 720,340.5C 719.502,337.518 719.335,334.518 719.5,331.5C 723.007,330.994 726.174,331.66 729,333.5C 730.145,332.364 731.312,331.364 732.5,330.5 Z M 733.5,346.5 C 737.363,347.257 738.196,349.257 736,352.5C 733.961,351.022 733.128,349.022 733.5,346.5 Z"/></g>
<g><path style="opacity:0.951" fill="#fefefe" d="M 294.5,335.5 C 296.167,335.5 297.833,335.5 299.5,335.5C 299.253,338.505 300.253,341.005 302.5,343C 305.822,343.059 308.656,344.226 311,346.5C 316.041,355.95 319.208,365.783 320.5,376C 311.926,379.469 303.259,382.635 294.5,385.5C 293.006,385.291 291.839,384.624 291,383.5C 287.462,375.384 284.628,367.051 282.5,358.5C 282.564,354.467 283.898,350.967 286.5,348C 284.653,345.286 284.32,342.453 285.5,339.5C 288.708,338.391 291.708,337.058 294.5,335.5 Z"/></g>
<g><path style="opacity:0.938" fill="#fefefe" d="M 255.5,336.5 C 263.796,336.306 269.129,340.139 271.5,348C 268.086,356.996 264.253,365.829 260,374.5C 250.063,373.432 242.23,368.598 236.5,360C 242.335,351.675 248.668,343.842 255.5,336.5 Z"/></g>
<g><path style="opacity:0.947" fill="#fefefe" d="M 226.5,365.5 C 229.167,365.5 231.833,365.5 234.5,365.5C 234.338,367.527 234.505,369.527 235,371.5C 236.99,374.488 239.323,377.155 242,379.5C 245.66,394.972 248.493,410.638 250.5,426.5C 250.514,428.593 249.848,430.426 248.5,432C 242.75,435.287 236.75,435.953 230.5,434C 229.299,433.097 228.465,431.931 228,430.5C 225.825,416.106 223.325,401.773 220.5,387.5C 220.785,383.017 222.285,379.017 225,375.5C 225.626,373.287 225.459,371.12 224.5,369C 224.978,367.697 225.645,366.531 226.5,365.5 Z"/></g>
<g><path style="opacity:0.92" fill="#fefefe" d="M 1029.5,371.5 C 1033.83,371.5 1038.17,371.5 1042.5,371.5C 1042.5,400.5 1042.5,429.5 1042.5,458.5C 1038.17,458.5 1033.83,458.5 1029.5,458.5C 1030.19,452.401 1028.85,451.901 1025.5,457C 1002.04,464.922 989.704,456.422 988.5,431.5C 988.237,412.935 997.237,403.435 1015.5,403C 1021.09,403.544 1025.59,406.044 1029,410.5C 1029.5,397.504 1029.67,384.504 1029.5,371.5 Z M 1012.5,414.5 C 1020.95,413.805 1026.45,417.472 1029,425.5C 1030.21,431.886 1029.21,437.886 1026,443.5C 1021.01,448.577 1015.18,449.744 1008.5,447C 1000.08,437.892 999.414,428.225 1006.5,418C 1008.43,416.541 1010.43,415.375 1012.5,414.5 Z"/></g>
<g><path style="opacity:0.945" fill="#fefefe" d="M 723.5,372.5 C 727.976,372.819 732.143,374.152 736,376.5C 736.782,379.257 736.282,381.757 734.5,384C 738.305,388.091 739.472,392.924 738,398.5C 735.309,404.234 732.809,410.068 730.5,416C 721.802,415.048 713.469,412.548 705.5,408.5C 705.167,407.667 704.833,406.833 704.5,406C 706.479,397.049 709.813,388.716 714.5,381C 720.178,380.852 723.178,378.018 723.5,372.5 Z"/></g>
<g><path style="opacity:0.923" fill="#fefefe" d="M 1103.5,372.5 C 1104.5,372.47 1105.16,372.97 1105.5,374C 1114.37,393.569 1123.37,413.069 1132.5,432.5C 1141.76,412.552 1150.93,392.552 1160,372.5C 1167.14,400.698 1173.98,429.031 1180.5,457.5C 1175.88,458.493 1171.21,458.827 1166.5,458.5C 1163.34,442.513 1160.17,426.513 1157,410.5C 1149.36,427.774 1141.2,444.774 1132.5,461.5C 1123.8,444.774 1115.64,427.774 1108,410.5C 1104.79,426.192 1101.46,441.859 1098,457.5C 1093.55,458.8 1089.05,458.8 1084.5,457.5C 1091.31,429.268 1097.64,400.934 1103.5,372.5 Z"/></g>
<g><path style="opacity:0.803" fill="#fefefe" d="M 269.5,374.5 C 283.368,372.321 288.701,377.988 285.5,391.5C 293.954,389.536 298.621,392.703 299.5,401C 299.275,403.528 298.942,406.028 298.5,408.5C 302.584,408.043 306.417,408.71 310,410.5C 311.555,415.382 311.888,420.382 311,425.5C 307.389,427.703 303.556,429.536 299.5,431C 297.5,434 295.5,437 293.5,440C 289.5,440.667 285.5,440.667 281.5,440C 280.069,439.535 278.903,438.701 278,437.5C 276.591,433.32 276.091,429.153 276.5,425C 264.945,424.396 260.945,418.563 264.5,407.5C 250.872,406.835 247.205,400.335 253.5,388C 261.712,386.958 267.045,382.458 269.5,374.5 Z M 274.5,377.5 C 282.19,377.97 284.524,381.636 281.5,388.5C 277.754,392.441 274.254,392.107 271,387.5C 269.756,383.191 270.923,379.858 274.5,377.5 Z M 258.5,390.5 C 264.023,391.184 266.856,394.184 267,399.5C 263.569,403.894 259.569,404.561 255,401.5C 253.663,396.916 254.829,393.249 258.5,390.5 Z M 286.5,394.5 C 292.641,393.816 295.808,396.483 296,402.5C 292.819,408.252 288.819,408.919 284,404.5C 282.861,400.579 283.695,397.246 286.5,394.5 Z M 275.5,395.5 C 276.833,395.5 278.167,395.5 279.5,395.5C 278.279,401.077 274.946,403.41 269.5,402.5C 270.833,399.507 272.833,397.173 275.5,395.5 Z M 270.5,407.5 C 275.652,406.907 278.986,409.074 280.5,414C 279.144,419.365 275.81,421.365 270.5,420C 267.311,418.456 266.145,415.956 267,412.5C 267.997,410.677 269.164,409.01 270.5,407.5 Z M 289.5,411.5 C 293.439,411.178 294.272,412.511 292,415.5C 289.338,418.949 286.172,420.116 282.5,419C 284.361,415.975 286.694,413.475 289.5,411.5 Z M 299.5,411.5 C 307.166,410.668 309.999,414.002 308,421.5C 302.58,426.121 298.413,425.121 295.5,418.5C 296.094,415.692 297.427,413.359 299.5,411.5 Z M 291.5,420.5 C 292.773,421.077 292.773,421.743 291.5,422.5C 290.537,422.03 290.537,421.363 291.5,420.5 Z M 283.5,424.5 C 291.812,424.619 294.146,428.453 290.5,436C 285.044,438.441 281.378,436.774 279.5,431C 279.836,428.08 281.17,425.913 283.5,424.5 Z M 296.5,426.5 C 297.713,427.497 297.546,428.497 296,429.5C 295.53,428.423 295.697,427.423 296.5,426.5 Z"/></g>
<g><path style="opacity:0.886" fill="#fefefe" d="M 1298.5,374.5 C 1305.3,373.221 1309.3,375.888 1310.5,382.5C 1310.17,387.5 1307.5,390.167 1302.5,390.5C 1295.73,389.303 1293.23,385.303 1295,378.5C 1296.38,377.295 1297.54,375.962 1298.5,374.5 Z"/></g>
<g><path style="opacity:0.883" fill="#fefefe" d="M 1543.5,374.5 C 1554.83,374.344 1557.83,379.177 1552.5,389C 1542.85,392.012 1538.68,388.512 1540,378.5C 1541.38,377.295 1542.54,375.962 1543.5,374.5 Z"/></g>
<g><path style="opacity:0.952" fill="#fefefe" d="M 1488.5,376.5 C 1493.17,376.5 1497.83,376.5 1502.5,376.5C 1502.5,399.5 1502.5,422.5 1502.5,445.5C 1512.17,445.5 1521.83,445.5 1531.5,445.5C 1531.5,449.833 1531.5,454.167 1531.5,458.5C 1517.17,458.5 1502.83,458.5 1488.5,458.5C 1488.5,431.167 1488.5,403.833 1488.5,376.5 Z"/></g>
<g><path style="opacity:0.948" fill="#fefefe" d="M 333.5,378.5 C 338.119,379.314 342.786,379.647 347.5,379.5C 350.792,393.339 349.792,406.839 344.5,420C 342.721,419.956 341.055,419.289 339.5,418C 325.439,419.391 315.272,413.891 309,401.5C 307.491,403.919 305.325,404.919 302.5,404.5C 302.842,399.582 303.508,394.749 304.5,390C 306.387,389.837 307.887,390.671 309,392.5C 315.156,384.149 323.323,379.482 333.5,378.5 Z"/></g>
<g><path style="opacity:0.874" fill="#fefefe" d="M 160.5,381.5 C 163.167,381.5 165.833,381.5 168.5,381.5C 169.698,387.289 171.365,392.956 173.5,398.5C 172.091,401.379 169.757,403.045 166.5,403.5C 165.328,403.081 164.328,402.415 163.5,401.5C 161.429,396.288 159.763,390.955 158.5,385.5C 158.803,383.886 159.47,382.552 160.5,381.5 Z"/></g>
<g><path style="opacity:0.924" fill="#fefefe" d="M 1572.5,384.5 C 1576.83,384.5 1581.17,384.5 1585.5,384.5C 1585.5,391.167 1585.5,397.833 1585.5,404.5C 1588.5,404.5 1591.5,404.5 1594.5,404.5C 1594.5,408.5 1594.5,412.5 1594.5,416.5C 1591.5,416.5 1588.5,416.5 1585.5,416.5C 1585.5,430.5 1585.5,444.5 1585.5,458.5C 1581.17,458.5 1576.83,458.5 1572.5,458.5C 1572.5,444.5 1572.5,430.5 1572.5,416.5C 1569.5,416.5 1566.5,416.5 1563.5,416.5C 1563.5,412.5 1563.5,408.5 1563.5,404.5C 1566.5,404.5 1569.5,404.5 1572.5,404.5C 1572.5,397.833 1572.5,391.167 1572.5,384.5 Z"/></g>
<g><path style="opacity:0.926" fill="#fefefe" d="M 1606.5,384.5 C 1610.83,384.5 1615.17,384.5 1619.5,384.5C 1619.5,391.167 1619.5,397.833 1619.5,404.5C 1622.5,404.5 1625.5,404.5 1628.5,404.5C 1628.5,408.5 1628.5,412.5 1628.5,416.5C 1625.5,416.5 1622.5,416.5 1619.5,416.5C 1619.5,430.5 1619.5,444.5 1619.5,458.5C 1615.17,458.5 1610.83,458.5 1606.5,458.5C 1606.5,444.5 1606.5,430.5 1606.5,416.5C 1603.5,416.5 1600.5,416.5 1597.5,416.5C 1597.5,412.5 1597.5,408.5 1597.5,404.5C 1600.5,404.5 1603.5,404.5 1606.5,404.5C 1606.5,397.833 1606.5,391.167 1606.5,384.5 Z"/></g>
<g><path style="opacity:0.917" fill="#fefefe" d="M 200.5,388.5 C 205.6,388.596 210.767,388.929 216,389.5C 216.579,394.527 216.913,399.527 217,404.5C 214.839,408.018 212.339,411.184 209.5,414C 208.167,414.667 206.833,414.667 205.5,414C 199.672,406.527 198.006,398.027 200.5,388.5 Z"/></g>
<g><path style="opacity:0.9" fill="#fefefe" d="M 410.5,388.5 C 412.735,389.228 414.568,390.561 416,392.5C 420.31,398.311 424.81,403.977 429.5,409.5C 428.083,417.46 423.75,419.96 416.5,417C 412.359,411.224 407.859,405.724 403,400.5C 402.333,398.833 402.333,397.167 403,395.5C 405.396,392.933 407.896,390.6 410.5,388.5 Z"/></g>
<g><path style="opacity:0.963" fill="#fefefe" d="M 441.5,458.5 C 441.328,459.492 441.662,460.158 442.5,460.5C 445.243,466.155 447.576,471.989 449.5,478C 449.357,480.151 448.357,481.818 446.5,483C 431.486,491.842 416.153,500.175 400.5,508C 396.328,508.868 393.162,507.368 391,503.5C 384.537,488.218 378.871,472.551 374,456.5C 372.445,449.728 371.279,442.895 370.5,436C 370.48,431.579 371.48,427.412 373.5,423.5C 372.197,421.032 370.697,418.699 369,416.5C 368.424,412.512 367.091,408.845 365,405.5C 364.242,403.231 364.409,401.064 365.5,399C 368.874,398.479 371.874,397.146 374.5,395C 378.485,393.666 381.152,394.999 382.5,399C 384.081,399.707 385.581,400.54 387,401.5C 388.28,405.159 389.78,408.659 391.5,412C 401.441,413.637 410.774,416.971 419.5,422C 422.372,424.537 424.872,427.37 427,430.5C 431.189,440.285 436.022,449.618 441.5,458.5 Z M 397.5,425.5 C 409.004,427.828 416.671,434.661 420.5,446C 420.081,448.086 418.914,449.586 417,450.5C 406.728,446.729 399.562,439.729 395.5,429.5C 395.752,427.927 396.418,426.594 397.5,425.5 Z"/></g>
<g><path style="opacity:0.928" fill="#fefefe" d="M 877.5,402.5 C 882.333,402.375 887,403.208 891.5,405C 894,406.167 895.833,408 897,410.5C 897.495,408.527 897.662,406.527 897.5,404.5C 901.833,404.5 906.167,404.5 910.5,404.5C 910.5,422.5 910.5,440.5 910.5,458.5C 906.167,458.5 901.833,458.5 897.5,458.5C 898.187,452.401 896.854,451.901 893.5,457C 870.342,464.716 858.008,456.216 856.5,431.5C 856.409,416.311 863.409,406.645 877.5,402.5 Z M 881.5,414.5 C 892.75,414.416 898.417,420.083 898.5,431.5C 896.726,446.152 889.059,450.986 875.5,446C 870.33,438.84 869.163,431.006 872,422.5C 874.161,418.495 877.328,415.829 881.5,414.5 Z"/></g>
<g><path style="opacity:0.928" fill="#fefefe" d="M 954.5,402.5 C 961.259,402.214 967.426,403.881 973,407.5C 974,409.167 975,410.833 976,412.5C 977.435,427.775 977.935,443.109 977.5,458.5C 973.167,458.5 968.833,458.5 964.5,458.5C 964.901,445.448 964.401,432.448 963,419.5C 961.063,415.614 957.897,413.947 953.5,414.5C 946.718,414.121 942.218,417.121 940,423.5C 939.5,435.162 939.333,446.829 939.5,458.5C 935.167,458.5 930.833,458.5 926.5,458.5C 926.5,440.5 926.5,422.5 926.5,404.5C 930.5,404.5 934.5,404.5 938.5,404.5C 938.337,406.857 938.503,409.19 939,411.5C 942.923,406.291 948.089,403.291 954.5,402.5 Z"/></g>
<g><path style="opacity:0.928" fill="#fefefe" d="M 1205.5,402.5 C 1210.33,402.375 1215,403.208 1219.5,405C 1222,406.167 1223.83,408 1225,410.5C 1225.5,408.527 1225.66,406.527 1225.5,404.5C 1229.83,404.5 1234.17,404.5 1238.5,404.5C 1238.5,422.5 1238.5,440.5 1238.5,458.5C 1234.17,458.5 1229.83,458.5 1225.5,458.5C 1226.19,452.401 1224.85,451.901 1221.5,457C 1198.31,464.678 1185.98,456.178 1184.5,431.5C 1184.39,416.327 1191.39,406.661 1205.5,402.5 Z M 1208.5,414.5 C 1220.06,413.895 1226.06,419.395 1226.5,431C 1224.97,445.908 1217.3,450.908 1203.5,446C 1201.57,443.742 1200.07,441.242 1199,438.5C 1196.24,427.897 1199.41,419.897 1208.5,414.5 Z"/></g>
<g><path style="opacity:0.945" fill="#fefefe" d="M 1276.5,402.5 C 1280.91,402.687 1285.25,403.354 1289.5,404.5C 1288.94,408.957 1287.27,412.957 1284.5,416.5C 1277.98,412.925 1272.82,414.258 1269,420.5C 1266.85,433.053 1266.02,445.719 1266.5,458.5C 1262.5,458.5 1258.5,458.5 1254.5,458.5C 1254.5,440.5 1254.5,422.5 1254.5,404.5C 1258.5,404.5 1262.5,404.5 1266.5,404.5C 1266.34,406.527 1266.5,408.527 1267,410.5C 1269.16,406.495 1272.33,403.829 1276.5,402.5 Z"/></g>
<g><path style="opacity:0.916" fill="#fefefe" d="M 1353.5,402.5 C 1361.77,401.645 1368.6,404.312 1374,410.5C 1374.92,413.101 1375.59,415.768 1376,418.5C 1376.5,431.829 1376.67,445.163 1376.5,458.5C 1372.17,458.5 1367.83,458.5 1363.5,458.5C 1363.87,445.787 1363.37,433.12 1362,420.5C 1360.42,415.706 1357.09,413.706 1352,414.5C 1345.86,414.318 1341.53,416.985 1339,422.5C 1337.63,434.453 1337.13,446.453 1337.5,458.5C 1333.17,458.5 1328.83,458.5 1324.5,458.5C 1324.5,440.5 1324.5,422.5 1324.5,404.5C 1328.83,404.5 1333.17,404.5 1337.5,404.5C 1336.6,410.89 1337.93,411.724 1341.5,407C 1345.3,404.584 1349.3,403.084 1353.5,402.5 Z"/></g>
<g><path style="opacity:0.927" fill="#fefefe" d="M 1411.5,402.5 C 1432.5,402.167 1442.83,412.5 1442.5,433.5C 1428.5,433.5 1414.5,433.5 1400.5,433.5C 1402.6,446.388 1409.93,450.888 1422.5,447C 1426.03,444.467 1429.19,441.634 1432,438.5C 1435.44,440.133 1438.61,442.133 1441.5,444.5C 1434.39,457.607 1423.39,462.774 1408.5,460C 1397.45,457.948 1390.61,451.448 1388,440.5C 1384.01,420.104 1391.84,407.437 1411.5,402.5 Z M 1409.5,414.5 C 1414.27,414.191 1418.93,414.691 1423.5,416C 1426.18,417.841 1427.84,420.341 1428.5,423.5C 1419.52,424.665 1410.52,424.832 1401.5,424C 1403.31,420.031 1405.98,416.864 1409.5,414.5 Z"/></g>
<g><path style="opacity:0.927" fill="#fefefe" d="M 1658.5,402.5 C 1679.17,402.5 1689.5,412.833 1689.5,433.5C 1675.5,433.5 1661.5,433.5 1647.5,433.5C 1649.6,446.388 1656.93,450.888 1669.5,447C 1673.03,444.467 1676.19,441.634 1679,438.5C 1682.44,440.133 1685.61,442.133 1688.5,444.5C 1681.39,457.607 1670.39,462.774 1655.5,460C 1644.45,457.948 1637.61,451.448 1635,440.5C 1631.01,420.104 1638.84,407.437 1658.5,402.5 Z M 1656.5,414.5 C 1661.27,414.191 1665.93,414.691 1670.5,416C 1672.79,418.07 1674.45,420.57 1675.5,423.5C 1666.52,424.665 1657.52,424.832 1648.5,424C 1650.31,420.031 1652.98,416.864 1656.5,414.5 Z"/></g>
<g><path style="opacity:0.908" fill="#fefefe" d="M 1723.5,402.5 C 1728.21,402.471 1732.54,403.638 1736.5,406C 1734.93,409.535 1733.26,413.035 1731.5,416.5C 1724.14,412.589 1718.64,414.255 1715,421.5C 1713.61,433.78 1713.11,446.114 1713.5,458.5C 1709.17,458.5 1704.83,458.5 1700.5,458.5C 1700.5,440.5 1700.5,422.5 1700.5,404.5C 1704.83,404.5 1709.17,404.5 1713.5,404.5C 1713,410.186 1714,410.686 1716.5,406C 1718.71,404.384 1721.05,403.217 1723.5,402.5 Z"/></g>
<g><path style="opacity:0.95" fill="#fefefe" d="M 175.5,403.5 C 177.288,403.215 178.955,403.548 180.5,404.5C 182.669,411.202 187.335,415.035 194.5,416C 200.421,421.671 204.421,428.504 206.5,436.5C 213.142,446.434 219.309,456.768 225,467.5C 225.706,469.971 225.373,472.305 224,474.5C 219.433,480.034 213.599,483.367 206.5,484.5C 203.809,484.321 201.475,483.321 199.5,481.5C 191.465,466.221 182.965,451.221 174,436.5C 171.869,429.901 172.035,423.401 174.5,417C 172.075,415.237 170.409,412.903 169.5,410C 171.014,407.322 173.014,405.155 175.5,403.5 Z"/></g>
<g><path style="opacity:0.982" fill="#fefffe" d="M 1296.5,404.5 C 1300.5,404.5 1304.5,404.5 1308.5,404.5C 1308.5,422.5 1308.5,440.5 1308.5,458.5C 1304.5,458.5 1300.5,458.5 1296.5,458.5C 1296.5,440.5 1296.5,422.5 1296.5,404.5 Z"/></g>
<g><path style="opacity:0.925" fill="#fefffe" d="M 1540.5,404.5 C 1544.83,404.5 1549.17,404.5 1553.5,404.5C 1553.5,422.5 1553.5,440.5 1553.5,458.5C 1549.17,458.5 1544.83,458.5 1540.5,458.5C 1540.5,440.5 1540.5,422.5 1540.5,404.5 Z"/></g>
<g><path style="opacity:0.928" fill="#fefefe" d="M 354.5,410.5 C 357.48,410.62 360.313,411.287 363,412.5C 363.917,422.493 364.25,432.493 364,442.5C 361.688,445.457 360.188,448.791 359.5,452.5C 356.233,453.992 354.066,452.992 353,449.5C 349.675,437.722 348.675,425.722 350,413.5C 351.409,412.219 352.909,411.219 354.5,410.5 Z"/></g>
<g><path style="opacity:0.906" fill="#fefefe" d="M 702.5,411.5 C 708.087,412.712 712.921,415.379 717,419.5C 719.422,423.344 722.089,427.01 725,430.5C 725.772,432.955 724.939,434.622 722.5,435.5C 712.48,436.533 703.98,433.533 697,426.5C 696.667,425.167 696.333,423.833 696,422.5C 694.267,424.602 692.267,424.935 690,423.5C 689.818,426.226 689.318,428.893 688.5,431.5C 682.535,432.772 676.535,433.939 670.5,435C 674.048,436.941 677.714,438.607 681.5,440C 682.591,442.064 682.758,444.231 682,446.5C 678.134,455.518 672.301,462.851 664.5,468.5C 662.133,468.487 660.8,467.32 660.5,465C 660.77,463.486 661.103,461.986 661.5,460.5C 660.245,457.987 659.578,455.32 659.5,452.5C 660.441,447.114 662.107,441.947 664.5,437C 664.167,436.5 663.833,436 663.5,435.5C 658.936,437.322 655.103,436.322 652,432.5C 651.352,427.796 651.519,423.129 652.5,418.5C 663.468,417.719 674.301,416.052 685,413.5C 687.892,414.82 689.225,417.154 689,420.5C 689.494,418.866 689.66,417.199 689.5,415.5C 694.427,414.54 696.927,416.54 697,421.5C 698.592,417.979 700.425,414.646 702.5,411.5 Z M 708.5,427.5 C 710.681,427.284 712.347,428.117 713.5,430C 710.738,431.077 709.072,430.244 708.5,427.5 Z M 664.5,448.5 C 665.693,448.97 666.36,449.97 666.5,451.5C 666.167,452.5 665.833,453.5 665.5,454.5C 664.534,452.604 664.201,450.604 664.5,448.5 Z"/></g>
<g><path style="opacity:0.906" fill="#fefefe" d="M 435.5,414.5 C 440.111,414.659 444.611,415.325 449,416.5C 449.726,421.239 449.393,425.905 448,430.5C 444.981,433.891 442.481,437.558 440.5,441.5C 433.156,436.287 428.823,429.121 427.5,420C 427.585,418.893 427.919,417.893 428.5,417C 431.004,416.302 433.337,415.469 435.5,414.5 Z"/></g>
<g><path style="opacity:0.889" fill="#fefefe" d="M 253.5,417.5 C 261.567,417.414 264.734,421.414 263,429.5C 260.425,426.681 258.092,423.681 256,420.5C 255.5,421 255,421.5 254.5,422C 256.796,427.432 259.963,432.265 264,436.5C 265.941,440.048 267.607,443.714 269,447.5C 268.958,459.875 268.125,472.208 266.5,484.5C 264.533,484.739 262.699,484.406 261,483.5C 252.254,468.634 250.754,453.134 256.5,437C 255.425,431.839 253.758,426.839 251.5,422C 252.044,420.415 252.711,418.915 253.5,417.5 Z"/></g>
<g><path style="opacity:0.87" fill="#fefefe" d="M 208.5,418.5 C 217.273,420.601 223.273,425.934 226.5,434.5C 224.312,438.699 220.812,441.366 216,442.5C 215.228,442.355 214.561,442.022 214,441.5C 209.817,434.433 207.984,426.767 208.5,418.5 Z M 216.5,427.5 C 217.077,426.227 217.743,426.227 218.5,427.5C 218.03,428.463 217.363,428.463 216.5,427.5 Z"/></g>
<g><path style="opacity:0.952" fill="#fefefe" d="M 442.5,460.5 C 442.672,459.508 442.338,458.842 441.5,458.5C 441.337,456.143 441.503,453.81 442,451.5C 447.179,441.793 451.679,431.793 455.5,421.5C 457.074,420.369 458.741,420.202 460.5,421C 470.244,424.619 478.744,430.119 486,437.5C 486.459,440.93 485.459,443.93 483,446.5C 476.475,453.724 470.308,461.224 464.5,469C 455.148,471.494 447.815,468.661 442.5,460.5 Z"/></g>
<g><path style="opacity:0.944" fill="#fefefe" d="M 626.5,421.5 C 628.857,421.337 631.19,421.503 633.5,422C 635.848,423.84 638.515,425.007 641.5,425.5C 643.56,424.472 645.56,424.472 647.5,425.5C 648.393,428.084 648.726,430.751 648.5,433.5C 643.038,434.437 638.705,437.27 635.5,442C 621.602,445.474 607.602,448.64 593.5,451.5C 592.062,451.281 590.729,450.781 589.5,450C 584.799,443.417 584.465,436.75 588.5,430C 601.322,427.259 613.989,424.426 626.5,421.5 Z"/></g>
<g><path style="opacity:0.947" fill="#fefefe" d="M 330.5,424.5 C 337.863,423.335 342.196,426.335 343.5,433.5C 335.308,457.686 318.641,472.353 293.5,477.5C 289.497,477.751 286.664,476.084 285,472.5C 284.333,469.5 284.333,466.5 285,463.5C 294.174,443.354 309.341,430.354 330.5,424.5 Z M 333.5,430.5 C 334.675,430.281 335.675,430.614 336.5,431.5C 334.948,432.798 333.948,432.465 333.5,430.5 Z M 292.5,467.5 C 294.973,467.947 295.14,468.947 293,470.5C 291.272,469.648 291.105,468.648 292.5,467.5 Z"/></g>
<g><path style="opacity:0.951" fill="#fefefe" d="M 562.5,430.5 C 568.341,430.419 572.674,432.919 575.5,438C 578.146,438.497 580.813,438.664 583.5,438.5C 583.666,443.179 583.499,447.845 583,452.5C 580.931,453.264 578.764,453.764 576.5,454C 574.874,456.628 572.874,458.961 570.5,461C 561.254,462.505 551.921,463.171 542.5,463C 541.874,462.25 541.374,461.416 541,460.5C 540.514,451.472 540.18,442.472 540,433.5C 547.539,432.054 555.039,431.054 562.5,430.5 Z"/></g>
<g><path style="opacity:0.929" fill="#fefefe" d="M 703.5,435.5 C 706.413,436.241 709.413,436.741 712.5,437C 713.022,437.561 713.355,438.228 713.5,439C 713.433,443.734 713.266,448.568 713,453.5C 711.752,456.579 709.919,459.246 707.5,461.5C 708.95,462.85 709.617,464.516 709.5,466.5C 706.813,466.664 704.146,466.497 701.5,466C 699.047,461.985 695.88,458.485 692,455.5C 689.896,450.855 688.396,446.022 687.5,441C 687.905,440.055 688.572,439.388 689.5,439C 694.184,437.347 698.85,436.181 703.5,435.5 Z"/></g>
<g><path style="opacity:0.921" fill="#fefefe" d="M 479.5,493.5 C 474.533,494.988 469.866,496.988 465.5,499.5C 464.508,499.328 463.842,499.662 463.5,500.5C 455.093,502.296 447.426,505.63 440.5,510.5C 437.902,509.32 436.236,507.32 435.5,504.5C 445.083,485.75 459.417,471.917 478.5,463C 484.366,461.213 490.366,460.213 496.5,460C 499.552,458.065 502.885,456.732 506.5,456C 511.581,449.926 516.248,443.593 520.5,437C 529.72,435.553 533.553,439.386 532,448.5C 530.026,453.449 526.86,457.449 522.5,460.5C 522.167,459.5 521.833,458.5 521.5,457.5C 522.293,453.866 523.793,450.532 526,447.5C 526.495,445.527 526.662,443.527 526.5,441.5C 525.127,441.343 523.793,441.51 522.5,442C 519.212,446.077 516.045,450.244 513,454.5C 511.368,459.03 510.368,463.696 510,468.5C 508.333,471.5 506,473.833 503,475.5C 501.629,478.88 499.462,481.713 496.5,484C 490.771,487.194 485.104,490.361 479.5,493.5 Z M 502.5,465.5 C 504.273,466.314 504.773,467.648 504,469.5C 503.209,468.255 502.709,466.922 502.5,465.5 Z"/></g>
<g><path style="opacity:0.87" fill="#fefefe" d="M 493.5,438.5 C 498.215,438.506 502.882,439.006 507.5,440C 512.66,442.895 512.66,445.895 507.5,449C 502.411,449.826 497.411,449.492 492.5,448C 485.7,443.928 486.034,440.761 493.5,438.5 Z"/></g>
<g><path style="opacity:0.867" fill="#fefefe" d="M 274.5,439.5 C 275.822,439.33 276.989,439.663 278,440.5C 281.725,450.134 282.558,460.134 280.5,470.5C 277.813,470.664 275.146,470.497 272.5,470C 271.874,469.25 271.374,468.416 271,467.5C 270.875,461.78 270.708,456.113 270.5,450.5C 271.854,446.823 273.187,443.156 274.5,439.5 Z"/></g>
<g><path style="opacity:0.91" fill="#fefefe" d="M 232.5,440.5 C 234.451,441.282 235.951,442.616 237,444.5C 240.75,451.002 244.75,457.335 249,463.5C 250.063,471.281 246.563,475.281 238.5,475.5C 231.837,467.515 226.171,458.848 221.5,449.5C 221.608,448.558 221.941,447.725 222.5,447C 226.029,444.94 229.363,442.773 232.5,440.5 Z"/></g>
<g><path style="opacity:0.894" fill="#fefefe" d="M 645.5,444.5 C 647.467,444.261 649.301,444.594 651,445.5C 652.628,449.325 652.795,453.158 651.5,457C 649.287,457.626 647.12,457.459 645,456.5C 631.538,459.125 618.205,462.125 605,465.5C 602.453,463.823 599.62,463.156 596.5,463.5C 596.399,459.425 598.399,456.925 602.5,456C 615.441,452.849 628.441,449.849 641.5,447C 643.066,446.392 644.4,445.558 645.5,444.5 Z"/></g>
<g><path style="opacity:0.934" fill="#fefefe" d="M 649.5,519.5 C 648.275,514.55 646.775,509.883 645,505.5C 646.793,503.194 648.96,502.861 651.5,504.5C 654.109,503.77 656.776,503.27 659.5,503C 657.718,500.757 657.218,498.257 658,495.5C 665,482.5 672,469.5 679,456.5C 679.561,455.978 680.228,455.645 681,455.5C 685.675,456.635 690.175,458.135 694.5,460C 695.573,462.657 697.24,464.823 699.5,466.5C 700.614,467.723 700.781,469.056 700,470.5C 693.398,482.039 687.065,493.705 681,505.5C 678.484,509.36 675.151,510.36 671,508.5C 669.148,515.034 665.648,520.534 660.5,525C 659.167,525.667 657.833,525.667 656.5,525C 654.004,523.334 651.671,521.5 649.5,519.5 Z"/></g>
<g><path style="opacity:0.957" fill="#fefefe" d="M 337.5,459.5 C 343.513,459.499 348.847,461.333 353.5,465C 369.739,467.623 376.572,477.123 374,493.5C 366.991,509.035 355.825,512.868 340.5,505C 336.896,502.292 334.396,498.792 333,494.5C 332.74,486.263 331.907,478.096 330.5,470C 329.764,464.275 332.097,460.775 337.5,459.5 Z M 336.5,465.5 C 339.569,465.963 340.069,467.296 338,469.5C 336.812,468.437 336.312,467.103 336.5,465.5 Z"/></g>
<g><path style="opacity:0.73" fill="#fefefe" d="M 585.5,459.5 C 590.675,459.835 592.341,462.502 590.5,467.5C 589.281,466.737 588.281,465.737 587.5,464.5C 587.847,466.14 587.347,467.807 586,469.5C 584.274,468.424 582.441,468.257 580.5,469C 581.821,470.545 581.488,471.711 579.5,472.5C 578.5,471.833 577.5,471.167 576.5,470.5C 575.758,472.108 575.591,473.775 576,475.5C 571.576,472.229 569.91,467.896 571,462.5C 571.667,463.167 572.333,463.833 573,464.5C 573.7,462.968 574.866,461.968 576.5,461.5C 578.949,461.98 581.115,462.98 583,464.5C 583.335,462.497 584.168,460.83 585.5,459.5 Z"/></g>
<g><path style="opacity:0.88" fill="#fefefe" d="M 520.5,463.5 C 525.672,464.848 528.172,468.182 528,473.5C 527.167,475 526,476.167 524.5,477C 520.987,477.927 517.487,478.761 514,479.5C 511.064,477.237 510.73,474.57 513,471.5C 514.69,467.979 517.19,465.312 520.5,463.5 Z"/></g>
<g><path style="opacity:0.901" fill="#fefefe" d="M 643.5,463.5 C 646.765,465.72 650.432,466.886 654.5,467C 658.062,470.058 661.062,473.558 663.5,477.5C 661.054,481.781 657.72,485.281 653.5,488C 652.5,488.667 651.5,488.667 650.5,488C 647.296,485.131 644.463,481.965 642,478.5C 641.944,475.22 641.111,472.22 639.5,469.5C 640.467,467.21 641.8,465.21 643.5,463.5 Z"/></g>
<g><path style="opacity:0.933" fill="#fefefe" d="M 552.5,469.5 C 556.192,468.971 559.358,469.971 562,472.5C 566.447,478.895 569.947,485.728 572.5,493C 570.117,506.044 562.45,511.044 549.5,508C 540.326,501.133 538.493,492.633 544,482.5C 546.387,477.77 549.22,473.437 552.5,469.5 Z M 554.5,473.5 C 555.773,474.077 555.773,474.743 554.5,475.5C 553.537,475.03 553.537,474.363 554.5,473.5 Z"/></g>
<g><path style="opacity:0.938" fill="#fefefe" d="M 605.5,473.5 C 613.903,473.13 622.236,473.63 630.5,475C 643.939,480.199 644.939,487.199 633.5,496C 616.334,504.219 598.667,505.552 580.5,500C 574.962,495.607 574.129,490.441 578,484.5C 586.255,478.364 595.422,474.697 605.5,473.5 Z M 633.5,482.5 C 635.76,483.238 635.927,484.238 634,485.5C 633.517,484.552 633.351,483.552 633.5,482.5 Z M 582.5,490.5 C 584.337,490.639 584.67,491.306 583.5,492.5C 582.702,492.043 582.369,491.376 582.5,490.5 Z"/></g>
<g><path style="opacity:0.88" fill="#fefefe" d="M 227.5,474.5 C 229.199,474.34 230.866,474.506 232.5,475C 241.587,483.023 247.087,492.857 249,504.5C 248.107,505.081 247.107,505.415 246,505.5C 240.695,503.359 235.195,501.859 229.5,501C 226.902,498.342 224.402,495.509 222,492.5C 222.128,495.486 222.128,498.486 222,501.5C 217.04,502.101 213.206,500.101 210.5,495.5C 211.63,491.369 214.297,489.702 218.5,490.5C 218.338,488.473 218.505,486.473 219,484.5C 222.419,481.588 225.252,478.254 227.5,474.5 Z M 230.5,493.5 C 232.929,493.585 234.929,494.585 236.5,496.5C 233.193,498.17 231.193,497.17 230.5,493.5 Z"/></g>
<g><path style="opacity:0.943" fill="#fefefe" d="M 281.5,476.5 C 282.552,476.351 283.552,476.517 284.5,477C 290,482.5 295.5,488 301,493.5C 302.659,496.945 302.826,500.445 301.5,504C 303.383,506.378 305.05,508.878 306.5,511.5C 306.333,512.167 306.167,512.833 306,513.5C 303.205,515.293 300.705,517.46 298.5,520C 297.5,520.667 296.5,520.667 295.5,520C 292.648,515.624 289.148,514.791 285,517.5C 276.789,512.628 269.789,506.295 264,498.5C 263.333,497.167 263.333,495.833 264,494.5C 270.087,488.575 275.921,482.575 281.5,476.5 Z"/></g>
<g><path style="opacity:0.921" fill="#fefefe" d="M 532.5,478.5 C 538.872,482.055 539.039,486.055 533,490.5C 532.183,494.899 531.183,499.232 530,503.5C 524.87,509.798 518.704,514.798 511.5,518.5C 504.932,513.919 499.599,508.085 495.5,501C 502.768,491.196 512.434,485.196 524.5,483C 527.354,481.603 530.02,480.103 532.5,478.5 Z M 524.5,494.5 C 525.497,494.47 526.164,494.97 526.5,496C 525.895,499.609 524.062,502.443 521,504.5C 519.635,503.407 519.301,502.074 520,500.5C 521.332,498.34 522.832,496.34 524.5,494.5 Z"/></g>
<g><path style="opacity:0.923" fill="#fefefe" d="M 311.5,481.5 C 316.762,481.195 321.928,481.529 327,482.5C 327.408,490.428 326.908,498.262 325.5,506C 320.558,508.121 315.725,507.954 311,505.5C 309.564,498.819 308.064,492.152 306.5,485.5C 306.608,484.558 306.941,483.725 307.5,483C 309.058,482.79 310.391,482.29 311.5,481.5 Z"/></g>
<g><path style="opacity:0.819" fill="#fefefe" d="M 258.5,486.5 C 264.852,489.135 264.852,492.302 258.5,496C 253.008,496.486 251.175,493.986 253,488.5C 254.948,487.891 256.782,487.224 258.5,486.5 Z"/></g>
<g><path style="opacity:0.802" fill="#fefefe" d="M 479.5,493.5 C 489.042,492.872 493.209,497.206 492,506.5C 492.953,508.455 494.287,510.122 496,511.5C 498.913,518.669 496.747,523.336 489.5,525.5C 487.239,524.352 484.905,523.852 482.5,524C 480.258,531.215 475.591,533.381 468.5,530.5C 466.585,532.742 464.585,534.909 462.5,537C 457.848,538.193 453.681,537.36 450,534.5C 450.353,528.22 448.353,522.886 444,518.5C 443.643,508.194 448.309,504.861 458,508.5C 459.742,505.785 461.575,503.118 463.5,500.5C 464.492,500.672 465.158,500.338 465.5,499.5C 468.067,499.855 470.567,500.521 473,501.5C 474.976,498.689 477.143,496.022 479.5,493.5 Z M 480.5,496.5 C 484.766,496.125 487.433,497.959 488.5,502C 484.833,508 481.167,508 477.5,502C 478.223,499.982 479.223,498.148 480.5,496.5 Z M 466.5,502.5 C 472.579,503.777 473.913,506.943 470.5,512C 465.057,513.873 462.557,512.04 463,506.5C 463.69,504.65 464.856,503.316 466.5,502.5 Z M 450.5,508.5 C 457.564,510.017 458.898,513.517 454.5,519C 450.3,520.31 447.633,518.81 446.5,514.5C 447.467,512.21 448.8,510.21 450.5,508.5 Z M 475.5,508.5 C 479.9,509.58 481.233,512.246 479.5,516.5C 476.578,514.657 475.245,511.99 475.5,508.5 Z M 486.5,512.5 C 490.497,511.668 493.164,513.168 494.5,517C 492.703,522.326 489.536,523.493 485,520.5C 484.109,517.502 484.609,514.836 486.5,512.5 Z M 461.5,514.5 C 465.31,516.762 466.143,519.762 464,523.5C 460.809,521.062 459.975,518.062 461.5,514.5 Z M 471.5,518.5 C 477.367,518.36 479.367,521.026 477.5,526.5C 473.335,530.433 470.335,529.6 468.5,524C 468.863,521.808 469.863,519.974 471.5,518.5 Z M 457.5,524.5 C 462.543,525.818 464.043,528.818 462,533.5C 459.592,535.624 457.092,535.457 454.5,533C 453.088,529.322 454.088,526.489 457.5,524.5 Z"/></g>
<g><path style="opacity:0.962" fill="#fefefe" d="M 372.5,499.5 C 374.527,499.338 376.527,499.505 378.5,500C 386.5,505.333 394.5,510.667 402.5,516C 405.272,517.531 407.272,519.698 408.5,522.5C 403.268,531.96 397.768,541.294 392,550.5C 387.407,555.731 381.574,557.897 374.5,557C 372.709,559.414 371.043,561.914 369.5,564.5C 368.667,564.833 367.833,565.167 367,565.5C 360.512,563.012 355.012,559.179 350.5,554C 351.27,552.225 352.437,550.725 354,549.5C 354.923,547.966 355.423,546.299 355.5,544.5C 354.426,541.04 353.426,537.54 352.5,534C 353.078,532.189 353.578,530.355 354,528.5C 360.39,518.95 366.557,509.283 372.5,499.5 Z"/></g>
<g><path style="opacity:0.821" fill="#fefefe" d="M 633.5,500.5 C 634.833,500.5 636.167,500.5 637.5,500.5C 634.294,508.551 628.961,514.884 621.5,519.5C 617.95,518.02 616.783,515.353 618,511.5C 623.497,508.18 628.664,504.513 633.5,500.5 Z"/></g>
<g><path style="opacity:0.9" fill="#fefefe" d="M 226.5,502.5 C 230.354,503.839 234.354,504.672 238.5,505C 240.899,505.731 243.065,506.898 245,508.5C 244.798,514.739 241.964,519.573 236.5,523C 232.29,522.156 229.124,519.656 227,515.5C 226.8,512.266 225.967,509.266 224.5,506.5C 224.752,504.927 225.418,503.594 226.5,502.5 Z"/></g>
<g><path style="opacity:0.945" fill="#fefefe" d="M 423.5,503.5 C 427.31,503.379 430.477,504.712 433,507.5C 437.989,516.648 442.822,525.814 447.5,535C 447.415,536.107 447.081,537.107 446.5,538C 438.388,543.261 429.554,546.761 420,548.5C 418.739,548.241 417.739,547.574 417,546.5C 414.089,535.688 411.255,524.855 408.5,514C 409.083,511.501 410.416,509.501 412.5,508C 416.053,505.879 419.72,504.379 423.5,503.5 Z"/></g>
<g><path style="opacity:0.962" fill="#fefefe" d="M 581.5,506.5 C 583.857,506.337 586.19,506.503 588.5,507C 593.4,508.702 598.234,510.535 603,512.5C 605.306,511.551 607.639,510.551 610,509.5C 611.225,509.862 612.391,510.362 613.5,511C 616.105,515.112 616.772,519.445 615.5,524C 612.211,524.882 608.877,525.548 605.5,526C 598.641,539.27 587.641,545.603 572.5,545C 557.162,550.338 541.662,554.838 526,558.5C 519.691,557.525 516.025,553.858 515,547.5C 513.024,541.627 512.357,535.627 513,529.5C 514.167,527.667 515.333,525.833 516.5,524C 538.425,518.854 560.092,513.021 581.5,506.5 Z"/></g>
<g><path style="opacity:0.938" fill="#fefefe" d="M 251.5,510.5 C 254.09,511.128 256.423,512.295 258.5,514C 262.619,514.143 266.619,514.81 270.5,516C 275.333,520.833 280.167,525.667 285,530.5C 285.635,532.635 285.301,534.635 284,536.5C 278.833,541.667 273.667,546.833 268.5,552C 266.212,552.418 264.212,551.751 262.5,550C 256.922,545.093 252.089,539.593 248,533.5C 247.289,531.101 247.456,528.768 248.5,526.5C 246.812,524.33 245.145,522.164 243.5,520C 245.296,516.042 247.963,512.876 251.5,510.5 Z"/></g>
<g><path style="opacity:0.939" fill="#fefefe" d="M 649.5,519.5 C 651.191,522.645 651.691,525.979 651,529.5C 645.499,536.365 639.666,542.865 633.5,549C 632.5,549.667 631.5,549.667 630.5,549C 625.254,544.425 620.754,539.258 617,533.5C 616.333,531.5 616.333,529.5 617,527.5C 623.239,522.63 629.739,518.13 636.5,514C 642.3,512.571 646.633,514.404 649.5,519.5 Z"/></g>
<g><path style="opacity:0.923" fill="#fefefe" d="M 322.5,519.5 C 332.528,520.429 341.695,523.763 350,529.5C 349.334,537.835 346.834,545.669 342.5,553C 341.271,553.781 339.938,554.281 338.5,554.5C 334.132,552.766 329.798,550.932 325.5,549C 317.357,542.893 309.524,536.393 302,529.5C 301.382,522.263 304.549,519.93 311.5,522.5C 315.41,521.942 319.076,520.942 322.5,519.5 Z M 322.5,525.5 C 326.549,524.884 329.882,526.05 332.5,529C 331.056,530.064 329.389,530.564 327.5,530.5C 325.142,530.247 322.808,529.914 320.5,529.5C 320.527,527.801 321.194,526.467 322.5,525.5 Z"/></g>
<g><path style="opacity:0.926" fill="#fefefe" d="M 494.5,526.5 C 496.017,526.511 497.184,527.177 498,528.5C 498.945,534.25 502.111,538.083 507.5,540C 509.378,541.543 510.878,543.376 512,545.5C 514.87,553.479 517.036,561.646 518.5,570C 518.561,571.711 517.894,573.044 516.5,574C 510.558,575.87 504.558,577.536 498.5,579C 495.901,579.769 493.401,579.602 491,578.5C 486.601,564.724 486.101,550.89 489.5,537C 488.652,534.23 488.319,531.397 488.5,528.5C 490.898,528.741 492.898,528.074 494.5,526.5 Z M 501.5,544.5 C 505.775,546.803 508.108,550.47 508.5,555.5C 505.358,555.201 503.191,553.534 502,550.5C 500.759,548.452 500.592,546.452 501.5,544.5 Z"/></g>
<g><path style="opacity:0.947" fill="#fefefe" d="M 477.5,536.5 C 479.167,536.5 480.833,536.5 482.5,536.5C 482.855,543.255 483.855,549.921 485.5,556.5C 484.553,562.728 482.22,568.395 478.5,573.5C 479.833,574.833 481.167,576.167 482.5,577.5C 478.75,580.415 474.417,581.748 469.5,581.5C 469.799,579.396 469.466,577.396 468.5,575.5C 463.799,574.068 459.633,571.734 456,568.5C 451.969,561.912 448.802,554.912 446.5,547.5C 451.14,544.176 456.14,541.343 461.5,539C 467.046,538.631 472.38,537.797 477.5,536.5 Z"/></g>
<g><path style="opacity:0.94" fill="#fefefe" d="M 287.5,537.5 C 298.068,541.199 308.234,545.866 318,551.5C 316.19,561.61 311.356,570.11 303.5,577C 301.212,577.418 299.212,576.751 297.5,575C 290.698,569.199 284.198,563.032 278,556.5C 276.936,547.96 280.103,541.627 287.5,537.5 Z"/></g>
<g><path style="opacity:0.906" fill="#fefefe" d="M 402.5,539.5 C 406.876,540.024 410.043,542.357 412,546.5C 414.299,550.896 415.466,555.562 415.5,560.5C 412.124,560.952 408.791,561.618 405.5,562.5C 402.63,561.878 399.796,561.211 397,560.5C 396.403,554.143 398.069,548.476 402,543.5C 402.49,542.207 402.657,540.873 402.5,539.5 Z"/></g>
<g><path style="opacity:0.908" fill="#fefefe" d="M 619.5,545.5 C 621.167,545.5 622.833,545.5 624.5,545.5C 624.421,546.93 624.754,548.264 625.5,549.5C 623.862,552.304 622.029,554.971 620,557.5C 614.207,561.625 608.707,566.125 603.5,571C 599.351,573.366 595.018,575.366 590.5,577C 582.791,577.238 575.124,577.904 567.5,579C 563.521,582.648 559.855,586.648 556.5,591C 546.821,593.65 543.655,590.15 547,580.5C 549.274,576.848 552.441,575.015 556.5,575C 554.987,579.181 552.654,582.848 549.5,586C 551.414,587.827 553.414,587.827 555.5,586C 560.397,581.046 563.897,575.213 566,568.5C 573.56,559.798 583.06,554.298 594.5,552C 602.993,549.961 611.326,547.795 619.5,545.5 Z"/></g>
<g><path style="opacity:0.93" fill="#fefefe" d="M 430.5,546.5 C 434.534,546.505 438.534,546.838 442.5,547.5C 441.726,551.775 443.226,554.775 447,556.5C 447.601,558.137 448.101,559.803 448.5,561.5C 447.742,568.138 447.242,574.804 447,581.5C 439.252,581.965 431.419,581.965 423.5,581.5C 422.529,573.513 422.696,565.513 424,557.5C 425.193,555.395 426.86,553.728 429,552.5C 429.505,550.482 430.005,548.482 430.5,546.5 Z"/></g>
<g><path style="opacity:0.914" fill="#fefefe" d="M 556.5,551.5 C 558.144,551.286 559.644,551.62 561,552.5C 563.419,555.93 563.919,559.596 562.5,563.5C 555.136,566.905 547.469,568.739 539.5,569C 536.019,565.603 535.686,561.936 538.5,558C 544.609,555.817 550.609,553.651 556.5,551.5 Z"/></g>
<g><path style="opacity:0.79" fill="#fefefe" d="M 364.5,579.5 C 363.596,580.209 363.263,581.209 363.5,582.5C 358.789,585.299 357.456,589.299 359.5,594.5C 354.776,598.858 349.609,599.524 344,596.5C 343.808,594.423 343.308,592.423 342.5,590.5C 339.768,592.546 336.768,593.38 333.5,593C 330.657,590.489 328.157,587.656 326,584.5C 320.913,587.728 316.913,586.728 314,581.5C 313.333,579.167 313.333,576.833 314,574.5C 318.837,571.129 320.837,566.462 320,560.5C 323.656,557.33 327.822,556.663 332.5,558.5C 333.657,560.678 334.99,562.678 336.5,564.5C 343.955,561.102 348.622,563.435 350.5,571.5C 359.557,566.709 364.224,569.376 364.5,579.5 Z M 325.5,560.5 C 333.481,561.11 334.481,564.11 328.5,569.5C 323.133,568.019 322.133,565.019 325.5,560.5 Z M 339.5,566.5 C 345.845,566.542 347.512,569.209 344.5,574.5C 340.608,576.051 338.274,574.718 337.5,570.5C 337.752,568.927 338.418,567.594 339.5,566.5 Z M 332.5,570.5 C 334.976,573.643 334.31,576.309 330.5,578.5C 329.693,575.566 330.36,572.899 332.5,570.5 Z M 355.5,571.5 C 358.669,571.662 360.669,573.328 361.5,576.5C 358.456,582.872 355.123,583.038 351.5,577C 352.296,574.715 353.629,572.881 355.5,571.5 Z M 319.5,574.5 C 326.184,574.181 328.184,577.181 325.5,583.5C 320.15,584.615 317.317,582.615 317,577.5C 318.045,576.627 318.878,575.627 319.5,574.5 Z M 346.5,576.5 C 349.318,579.438 348.985,582.104 345.5,584.5C 344.692,584.192 344.025,583.692 343.5,583C 344.129,580.625 345.129,578.459 346.5,576.5 Z M 334.5,580.5 C 338.017,580.351 340.017,582.018 340.5,585.5C 337.5,592.167 334.5,592.167 331.5,585.5C 331.757,583.308 332.757,581.641 334.5,580.5 Z M 348.5,586.5 C 355.358,587.127 356.691,589.96 352.5,595C 345.368,594.903 344.035,592.07 348.5,586.5 Z"/></g>
<g><path style="opacity:0.879" fill="#fefefe" d="M 377.5,560.5 C 389.647,564.03 401.981,566.864 414.5,569C 422.602,572.821 422.436,575.321 414,576.5C 401.535,574.407 389.035,572.574 376.5,571C 375.092,567.348 375.426,563.848 377.5,560.5 Z"/></g>
<g><path style="opacity:0.933" fill="#fefefe" d="M 530.5,571.5 C 533.119,571.232 535.619,571.565 538,572.5C 541.825,580.651 544.825,588.984 547,597.5C 534.606,604.205 521.439,606.538 507.5,604.5C 503.955,606.436 500.289,606.769 496.5,605.5C 494.883,603.368 494.383,601.035 495,598.5C 497.846,596.743 500.512,594.743 503,592.5C 504.393,587.639 506.893,583.472 510.5,580C 517.063,576.654 523.73,573.821 530.5,571.5 Z M 517.5,583.5 C 521.439,583.178 522.272,584.511 520,587.5C 517.715,590.892 514.548,592.559 510.5,592.5C 511.686,588.643 514.02,585.643 517.5,583.5 Z"/></g>
<g><path style="opacity:0.922" fill="#fefefe" d="M 359.5,594.5 C 361.405,590.784 362.739,586.784 363.5,582.5C 364.404,581.791 364.737,580.791 364.5,579.5C 365.41,577.981 366.243,576.315 367,574.5C 367.893,573.919 368.893,573.585 370,573.5C 379.684,575.283 388.851,578.45 397.5,583C 400.883,586.269 403.383,590.103 405,594.5C 406.987,595.218 408.821,596.218 410.5,597.5C 410.71,594.614 410.877,591.614 411,588.5C 411.5,588 412,587.5 412.5,587C 419.863,586.463 427.196,586.797 434.5,588C 435.357,591.76 435.357,595.594 434.5,599.5C 427.599,598.572 420.766,598.572 414,599.5C 413.219,600.944 413.386,602.277 414.5,603.5C 421.398,600.651 428.065,601.151 434.5,605C 436.978,606.938 437.145,609.105 435,611.5C 428.83,612.89 422.663,612.723 416.5,611C 413.898,610.065 412.398,608.232 412,605.5C 408.447,607.837 404.614,608.17 400.5,606.5C 386.61,609.694 373.11,608.361 360,602.5C 358.344,599.947 358.177,597.281 359.5,594.5 Z M 385.5,584.5 C 390.462,585.625 394.128,588.458 396.5,593C 395.892,593.87 395.059,594.37 394,594.5C 389.936,593.061 386.769,590.561 384.5,587C 384.743,586.098 385.077,585.265 385.5,584.5 Z"/></g>
<g><path style="opacity:0.92" fill="#fefefe" d="M 493.5,583.5 C 496.247,583.187 498.914,583.52 501.5,584.5C 502.485,586.098 502.651,587.765 502,589.5C 492.756,593.872 483.59,598.372 474.5,603C 480.5,602.667 486.5,602.333 492.5,602C 494.054,604.224 495.054,606.724 495.5,609.5C 495.167,609.833 494.833,610.167 494.5,610.5C 488.864,611.591 483.197,612.591 477.5,613.5C 476.558,613.392 475.725,613.059 475,612.5C 474.178,610.212 473.511,607.878 473,605.5C 464.873,609.202 456.373,612.035 447.5,614C 444.653,614.944 442.153,614.444 440,612.5C 438.365,608.291 437.198,603.958 436.5,599.5C 436.437,597.519 437.104,595.852 438.5,594.5C 446.782,591.846 455.115,589.346 463.5,587C 467.002,586.306 470.336,586.806 473.5,588.5C 480.368,587.116 487.034,585.45 493.5,583.5 Z"/></g>
</svg>
